<svg
    viewBox="0 0 960 1080"
    fill="none"
    preserveAspectRatio="xMaxYMid meet"
    xmlns="http://www.w3.org/2000/svg"
    version="1.2"
>
    <path d="M249 80H164V162H83V242H0V0H249V80Z" fill="#3521B5" />
    <path d="M611 80V147L539 80H611Z" fill="#3521B5" />
    <path d="M683 80V147L611 80H683Z" fill="#3521B5" />
    <path d="M683 147V214L611 147H683Z" fill="#3521B5" />
    <path d="M755 80V147L683 80H755Z" fill="#3521B5" />
    <path d="M755 147V214L683 147H755Z" fill="#3521B5" />
    <path d="M827 80V147L755 80H827Z" fill="#3521B5" />
    <path d="M827 147V214L755 147H827Z" fill="#3521B5" />
    <ellipse cx="385.588" cy="407.273" rx="2.58824" ry="2.27273" fill="#3521B5" />
    <ellipse cx="440.765" cy="407.273" rx="2.58826" ry="2.27273" fill="#3521B5" />
    <ellipse cx="495.941" cy="407.273" rx="2.58824" ry="2.27273" fill="#3521B5" />
    <ellipse cx="551.118" cy="407.273" rx="2.58826" ry="2.27273" fill="#3521B5" />
    <ellipse cx="606.294" cy="407.273" rx="2.58826" ry="2.27273" fill="#3521B5" />
    <ellipse cx="661.471" cy="407.273" rx="2.5883" ry="2.27273" fill="#3521B5" />
    <ellipse cx="716.647" cy="407.273" rx="2.58821" ry="2.27273" fill="#3521B5" />
    <ellipse cx="771.824" cy="407.273" rx="2.58817" ry="2.27273" fill="#3521B5" />
    <ellipse cx="827" cy="407.273" rx="2.58832" ry="2.27273" fill="#3521B5" />
    <ellipse cx="882.177" cy="407.273" rx="2.5882" ry="2.27273" fill="#3521B5" />
    <ellipse cx="385.588" cy="479.818" rx="2.58824" ry="2.27273" fill="#3521B5" />
    <ellipse cx="440.765" cy="479.818" rx="2.58826" ry="2.27273" fill="#3521B5" />
    <ellipse cx="495.941" cy="479.818" rx="2.58824" ry="2.27273" fill="#3521B5" />
    <ellipse cx="551.118" cy="479.818" rx="2.58826" ry="2.27273" fill="#3521B5" />
    <ellipse cx="606.294" cy="479.818" rx="2.58826" ry="2.27273" fill="#3521B5" />
    <ellipse cx="661.471" cy="479.818" rx="2.5883" ry="2.27273" fill="#3521B5" />
    <ellipse cx="716.647" cy="479.818" rx="2.58821" ry="2.27273" fill="#3521B5" />
    <ellipse cx="771.824" cy="479.818" rx="2.58817" ry="2.27273" fill="#3521B5" />
    <ellipse cx="827" cy="479.818" rx="2.58832" ry="2.27273" fill="#3521B5" />
    <ellipse cx="882.177" cy="479.818" rx="2.5882" ry="2.27273" fill="#3521B5" />
    <ellipse cx="385.588" cy="552.364" rx="2.58824" ry="2.27273" fill="#3521B5" />
    <ellipse cx="440.765" cy="552.364" rx="2.58826" ry="2.27273" fill="#3521B5" />
    <ellipse cx="495.941" cy="552.364" rx="2.58824" ry="2.27273" fill="#3521B5" />
    <ellipse cx="551.118" cy="552.364" rx="2.58826" ry="2.27273" fill="#3521B5" />
    <ellipse cx="606.294" cy="552.364" rx="2.58826" ry="2.27273" fill="#3521B5" />
    <ellipse cx="661.471" cy="552.364" rx="2.5883" ry="2.27273" fill="#3521B5" />
    <ellipse cx="716.647" cy="552.364" rx="2.58821" ry="2.27273" fill="#3521B5" />
    <ellipse cx="771.824" cy="552.364" rx="2.58817" ry="2.27273" fill="#3521B5" />
    <ellipse cx="827" cy="552.364" rx="2.58832" ry="2.27273" fill="#3521B5" />
    <ellipse cx="882.177" cy="552.364" rx="2.5882" ry="2.27273" fill="#3521B5" />
    <ellipse cx="385.588" cy="624.909" rx="2.58824" ry="2.27273" fill="#3521B5" />
    <ellipse cx="440.765" cy="624.909" rx="2.58826" ry="2.27273" fill="#3521B5" />
    <ellipse cx="495.941" cy="624.909" rx="2.58824" ry="2.27273" fill="#3521B5" />
    <ellipse cx="551.118" cy="624.909" rx="2.58826" ry="2.27273" fill="#3521B5" />
    <ellipse cx="606.294" cy="624.909" rx="2.58826" ry="2.27273" fill="#3521B5" />
    <ellipse cx="661.471" cy="624.909" rx="2.5883" ry="2.27273" fill="#3521B5" />
    <ellipse cx="716.647" cy="624.909" rx="2.58821" ry="2.27273" fill="#3521B5" />
    <ellipse cx="771.824" cy="624.909" rx="2.58817" ry="2.27273" fill="#3521B5" />
    <ellipse cx="827" cy="624.909" rx="2.58832" ry="2.27273" fill="#3521B5" />
    <ellipse cx="882.177" cy="624.909" rx="2.5882" ry="2.27273" fill="#3521B5" />
    <circle cx="781.5" cy="626.5" r="57.5" fill="white" />
    <g clip-path="url(#clip0)">
        <path
            d="M794.26 590.047H765.997C763.789 590.047 762 591.849 762 594.071V659.976C762 662.198 763.789 664 765.997 664H794.26C796.468 664 798.257 662.198 798.257 659.976V594.071C798.257 591.849 796.468 590.047 794.26 590.047Z"
            fill="#5138EE"
        />
        <path
            d="M793.416 592.194H767.119C765.521 592.194 764.225 593.499 764.225 595.108V659.032C764.225 660.641 765.521 661.945 767.119 661.945H793.416C795.014 661.945 796.31 660.641 796.31 659.032V595.108C796.31 593.499 795.014 592.194 793.416 592.194Z"
            fill="white"
        />
        <path
            d="M787.373 590H772.976C772.01 590 771.226 590.789 771.226 591.762V592.627C771.226 593.6 772.01 594.389 772.976 594.389H787.373C788.34 594.389 789.123 593.6 789.123 592.627V591.762C789.123 590.789 788.34 590 787.373 590Z"
            fill="#5138EE"
        />
        <path
            d="M780.268 617.266C785.415 617.266 789.587 613.064 789.587 607.881C789.587 602.698 785.415 598.497 780.268 598.497C775.121 598.497 770.948 602.698 770.948 607.881C770.948 613.064 775.121 617.266 780.268 617.266Z"
            fill="#5138EE"
            fill-opacity="0.29"
        />
        <path d="M767.981 623.989V620.067H800.947V623.989H767.981Z" fill="#7B57FF" />
        <path d="M784.801 630.712H767.981V628.75" stroke="#3E3E3E" stroke-width="1.31" stroke-miterlimit="10" />
        <path d="M784.801 642.197H767.981V640.236" stroke="#3E3E3E" stroke-width="1.31" stroke-miterlimit="10" />
        <path d="M767.981 626.79H800.947V628.751" stroke="#3E3E3E" stroke-width="1.31" stroke-miterlimit="10" />
        <path d="M767.981 644.998H800.947V646.959" stroke="#3E3E3E" stroke-width="1.31" stroke-miterlimit="10" />
        <path d="M800.947 633.513H767.981V637.434H800.947V633.513Z" fill="#7B57FF" />
        <path d="M800.947 650H767.981V653.921H800.947V650Z" fill="#7B57FF" />
    </g>
    <circle cx="181.5" cy="360.5" r="72.5" fill="white" />
    <path
        d="M219.773 329H141.418C140.292 329 139.378 329.911 139.378 331.036V385.951C139.378 387.075 140.292 387.987 141.418 387.987H219.773C220.9 387.987 221.813 387.075 221.813 385.951V331.036C221.813 329.911 220.9 329 219.773 329Z"
        fill="#5138EE"
    />
    <path
        d="M141.418 329H219.773C220.314 329 220.833 329.214 221.216 329.596C221.598 329.978 221.813 330.496 221.813 331.036V379.438H139.378V331.036C139.378 330.496 139.593 329.978 139.976 329.596C140.358 329.214 140.877 329 141.418 329V329Z"
        fill="#5138EE"
    />
    <path d="M218.481 332.135H142.044V375.828H218.481V332.135Z" fill="white" />
    <path
        d="M187.706 401H173.033C172.622 401 172.216 400.913 171.842 400.743C171.468 400.574 171.135 400.327 170.864 400.019C170.593 399.711 170.391 399.349 170.272 398.957C170.153 398.565 170.119 398.152 170.172 397.746L171.457 387.987H189.353L190.57 397.77C190.619 398.175 190.583 398.586 190.461 398.975C190.34 399.364 190.138 399.723 189.867 400.029C189.596 400.334 189.264 400.578 188.891 400.746C188.519 400.913 188.115 401 187.706 401V401Z"
        fill="#5138EE"
    />
    <path
        opacity="0.8"
        d="M180.596 385.897C181.857 385.897 182.88 384.876 182.88 383.617C182.88 382.358 181.857 381.338 180.596 381.338C179.334 381.338 178.311 382.358 178.311 383.617C178.311 384.876 179.334 385.897 180.596 385.897Z"
        fill="white"
    />
    <path opacity="0.8" d="M229 334.747H181.976V355.549H229V334.747Z" fill="#7B57FF" />
    <path d="M134 359.253H178.835" stroke="#7B57FF" stroke-width="3.52" stroke-miterlimit="10" />
    <path d="M134 362.72H178.835" stroke="#7B57FF" stroke-width="3.52" stroke-miterlimit="10" />
    <path d="M134 366.235H178.835" stroke="#7B57FF" stroke-width="3.52" stroke-miterlimit="10" />
    <path d="M134 369.749H178.835" stroke="#7B57FF" stroke-width="3.52" stroke-miterlimit="10" />
    <circle cx="719.5" cy="265.5" r="72.5" fill="white" />
    <g clip-path="url(#clip1)">
        <path
            d="M689.193 245.505H758.184C758.88 245.505 759.546 245.78 760.036 246.267C760.526 246.754 760.8 247.413 760.8 248.099V291.015H686.578V248.099C686.578 247.413 686.852 246.754 687.342 246.267C687.832 245.78 688.498 245.505 689.193 245.505Z"
            fill="#5138EE"
            fill-opacity="0.29"
            stroke="#3E3E3E"
            stroke-width="2"
        />
        <path
            d="M673.638 288.116C674.575 288.116 675.335 287.361 675.335 286.429C675.335 285.498 674.575 284.743 673.638 284.743C672.701 284.743 671.942 285.498 671.942 286.429C671.942 287.361 672.701 288.116 673.638 288.116Z"
            fill="#7B57FF"
        />
        <path
            d="M678.418 288.116C679.355 288.116 680.115 287.361 680.115 286.429C680.115 285.498 679.355 284.743 678.418 284.743C677.481 284.743 676.721 285.498 676.721 286.429C676.721 287.361 677.481 288.116 678.418 288.116Z"
            fill="#7B57FF"
        />
        <path
            d="M683.199 288.116C684.136 288.116 684.896 287.361 684.896 286.429C684.896 285.498 684.136 284.743 683.199 284.743C682.262 284.743 681.502 285.498 681.502 286.429C681.502 287.361 682.262 288.116 683.199 288.116Z"
            fill="#7B57FF"
        />
        <path
            d="M687.979 288.116C688.916 288.116 689.676 287.361 689.676 286.429C689.676 285.498 688.916 284.743 687.979 284.743C687.042 284.743 686.282 285.498 686.282 286.429C686.282 287.361 687.042 288.116 687.979 288.116Z"
            fill="#7B57FF"
        />
        <path
            d="M692.76 288.116C693.697 288.116 694.457 287.361 694.457 286.429C694.457 285.498 693.697 284.743 692.76 284.743C691.823 284.743 691.063 285.498 691.063 286.429C691.063 287.361 691.823 288.116 692.76 288.116Z"
            fill="#7B57FF"
        />
        <path
            d="M697.54 288.116C698.477 288.116 699.236 287.361 699.236 286.429C699.236 285.498 698.477 284.743 697.54 284.743C696.603 284.743 695.843 285.498 695.843 286.429C695.843 287.361 696.603 288.116 697.54 288.116Z"
            fill="#7B57FF"
        />
        <path
            d="M767.817 291.956H679.56V296.883H767.817V291.956Z"
            stroke="#3E3E3E"
            stroke-width="2"
            stroke-miterlimit="10"
        />
        <path d="M712.775 238.346H673.602V263.567H712.775V238.346Z" fill="#7B57FF" />
        <path opacity="0.68" d="M769.882 279.873H722.686V285.504H769.882V279.873Z" fill="#5138EE" />
        <path d="M726.157 277.292H722.686V271.662H733.552" stroke="#3E3E3E" stroke-width="2" stroke-miterlimit="10" />
        <path d="M769.882 271.662V277.292H757.157" stroke="#3E3E3E" stroke-width="2" stroke-miterlimit="10" />
        <path d="M733.552 271.662H756.304" stroke="#3E3E3E" stroke-width="2" stroke-miterlimit="10" />
        <path d="M732.007 291.604H715.37V294.888H732.007V291.604Z" fill="#E2E2E2" />
    </g>
    <path
        d="M286.047 854H278.195L290.875 819.875H297.695L310.445 854H302.594L300.367 847.203H288.273L286.047 854ZM290.219 841.25H298.398L294.297 828.852L290.219 841.25ZM320.547 854H313.445V818H320.547V854ZM333.438 854H326.336V818H333.438V854ZM364.961 828.641H372.531L362.406 857.797C362.109 858.641 361.664 859.562 361.07 860.562C360.492 861.578 359.656 862.445 358.562 863.164C357.484 863.883 356.039 864.242 354.227 864.242C353.57 864.242 353.039 864.203 352.633 864.125C352.227 864.062 351.734 863.953 351.156 863.797V858.453C351.484 858.469 351.828 858.477 352.188 858.477C353.5 858.477 354.461 858.266 355.07 857.844C355.695 857.438 356.164 856.797 356.477 855.922L357.18 854.094L348.32 828.641H355.938L360.438 843.922L364.961 828.641ZM374.055 841.086C374.055 838.617 374.523 836.414 375.461 834.477C376.398 832.523 377.766 830.984 379.562 829.859C381.359 828.734 383.539 828.172 386.102 828.172C388.695 828.172 390.891 828.734 392.688 829.859C394.5 830.984 395.867 832.523 396.789 834.477C397.727 836.414 398.195 838.617 398.195 841.086V841.578C398.195 844.031 397.727 846.234 396.789 848.188C395.867 850.125 394.508 851.656 392.711 852.781C390.914 853.906 388.727 854.469 386.148 854.469C383.57 854.469 381.375 853.906 379.562 852.781C377.766 851.656 376.398 850.125 375.461 848.188C374.523 846.234 374.055 844.031 374.055 841.578V841.086ZM381.156 841.578C381.156 842.906 381.312 844.117 381.625 845.211C381.938 846.305 382.461 847.172 383.195 847.812C383.93 848.453 384.914 848.773 386.148 848.773C387.977 848.773 389.258 848.078 389.992 846.688C390.742 845.281 391.117 843.578 391.117 841.578V841.086C391.117 839.789 390.953 838.594 390.625 837.5C390.312 836.406 389.789 835.531 389.055 834.875C388.336 834.203 387.352 833.867 386.102 833.867C384.883 833.867 383.914 834.203 383.195 834.875C382.477 835.531 381.953 836.406 381.625 837.5C381.312 838.594 381.156 839.789 381.156 841.086V841.578ZM417.133 828.641H424.211V854H417.578L417.391 851.398C416.609 852.367 415.641 853.125 414.484 853.672C413.344 854.203 412.016 854.469 410.5 854.469C408 854.469 405.969 853.734 404.406 852.266C402.859 850.797 402.086 848.391 402.086 845.047V828.641H409.164V845.094C409.164 846.391 409.484 847.32 410.125 847.883C410.766 848.445 411.594 848.727 412.609 848.727C413.781 848.727 414.727 848.523 415.445 848.117C416.18 847.711 416.742 847.164 417.133 846.477V828.641ZM436.281 854H429.203V828.641H435.859L436.094 831.664C436.703 830.57 437.477 829.719 438.414 829.109C439.352 828.484 440.438 828.172 441.672 828.172C442.031 828.172 442.406 828.203 442.797 828.266C443.203 828.312 443.531 828.383 443.781 828.477L443.688 835.297C443.344 835.25 442.93 835.211 442.445 835.18C441.977 835.133 441.562 835.109 441.203 835.109C438.688 835.109 437.047 835.93 436.281 837.57V854ZM481.844 841.531C481.844 844.078 481.484 846.32 480.766 848.258C480.047 850.195 478.953 851.719 477.484 852.828C476.031 853.922 474.203 854.469 472 854.469C470.562 854.469 469.312 854.195 468.25 853.648C467.188 853.086 466.273 852.312 465.508 851.328L465.18 854H458.828V818H465.906V830.82C466.641 829.992 467.5 829.344 468.484 828.875C469.484 828.406 470.641 828.172 471.953 828.172C474.172 828.172 476.016 828.727 477.484 829.836C478.953 830.945 480.047 832.469 480.766 834.406C481.484 836.344 481.844 838.555 481.844 841.039V841.531ZM474.766 841.039C474.766 839.758 474.641 838.578 474.391 837.5C474.141 836.406 473.68 835.539 473.008 834.898C472.352 834.242 471.398 833.914 470.148 833.914C469.07 833.914 468.188 834.133 467.5 834.57C466.812 834.992 466.281 835.586 465.906 836.352V846.266C466.281 847.062 466.812 847.68 467.5 848.117C468.203 848.539 469.102 848.75 470.195 848.75C471.445 848.75 472.398 848.445 473.055 847.836C473.711 847.211 474.156 846.359 474.391 845.281C474.641 844.188 474.766 842.938 474.766 841.531V841.039ZM484.82 841.086C484.82 838.617 485.289 836.414 486.227 834.477C487.164 832.523 488.531 830.984 490.328 829.859C492.125 828.734 494.305 828.172 496.867 828.172C499.461 828.172 501.656 828.734 503.453 829.859C505.266 830.984 506.633 832.523 507.555 834.477C508.492 836.414 508.961 838.617 508.961 841.086V841.578C508.961 844.031 508.492 846.234 507.555 848.188C506.633 850.125 505.273 851.656 503.477 852.781C501.68 853.906 499.492 854.469 496.914 854.469C494.336 854.469 492.141 853.906 490.328 852.781C488.531 851.656 487.164 850.125 486.227 848.188C485.289 846.234 484.82 844.031 484.82 841.578V841.086ZM491.922 841.578C491.922 842.906 492.078 844.117 492.391 845.211C492.703 846.305 493.227 847.172 493.961 847.812C494.695 848.453 495.68 848.773 496.914 848.773C498.742 848.773 500.023 848.078 500.758 846.688C501.508 845.281 501.883 843.578 501.883 841.578V841.086C501.883 839.789 501.719 838.594 501.391 837.5C501.078 836.406 500.555 835.531 499.82 834.875C499.102 834.203 498.117 833.867 496.867 833.867C495.648 833.867 494.68 834.203 493.961 834.875C493.242 835.531 492.719 836.406 492.391 837.5C492.078 838.594 491.922 839.789 491.922 841.086V841.578ZM511.961 841.086C511.961 838.617 512.43 836.414 513.367 834.477C514.305 832.523 515.672 830.984 517.469 829.859C519.266 828.734 521.445 828.172 524.008 828.172C526.602 828.172 528.797 828.734 530.594 829.859C532.406 830.984 533.773 832.523 534.695 834.477C535.633 836.414 536.102 838.617 536.102 841.086V841.578C536.102 844.031 535.633 846.234 534.695 848.188C533.773 850.125 532.414 851.656 530.617 852.781C528.82 853.906 526.633 854.469 524.055 854.469C521.477 854.469 519.281 853.906 517.469 852.781C515.672 851.656 514.305 850.125 513.367 848.188C512.43 846.234 511.961 844.031 511.961 841.578V841.086ZM519.062 841.578C519.062 842.906 519.219 844.117 519.531 845.211C519.844 846.305 520.367 847.172 521.102 847.812C521.836 848.453 522.82 848.773 524.055 848.773C525.883 848.773 527.164 848.078 527.898 846.688C528.648 845.281 529.023 843.578 529.023 841.578V841.086C529.023 839.789 528.859 838.594 528.531 837.5C528.219 836.406 527.695 835.531 526.961 834.875C526.242 834.203 525.258 833.867 524.008 833.867C522.789 833.867 521.82 834.203 521.102 834.875C520.383 835.531 519.859 836.406 519.531 837.5C519.219 838.594 519.062 839.789 519.062 841.086V841.578ZM547.234 854H540.156V817.977H547.234V837.664L548.43 836.141L554.711 828.641H563.219L554.148 839.164L563.969 854H555.836L549.602 844.039L547.234 846.406V854ZM573.062 854H565.984V828.641H572.641L572.875 831.406C573.703 830.391 574.719 829.602 575.922 829.039C577.141 828.461 578.531 828.172 580.094 828.172C581.594 828.172 582.922 828.477 584.078 829.086C585.234 829.695 586.133 830.664 586.773 831.992C587.586 830.805 588.617 829.875 589.867 829.203C591.133 828.516 592.617 828.172 594.32 828.172C596.758 828.172 598.719 828.898 600.203 830.352C601.688 831.805 602.43 834.32 602.43 837.898V854H595.305V837.875C595.305 836.25 594.984 835.188 594.344 834.688C593.703 834.172 592.82 833.914 591.695 833.914C590.727 833.914 589.914 834.148 589.258 834.617C588.602 835.086 588.094 835.719 587.734 836.516C587.734 836.703 587.734 836.891 587.734 837.078V854H580.656V837.945C580.656 836.32 580.328 835.242 579.672 834.711C579.031 834.18 578.141 833.914 577 833.914C576.094 833.914 575.312 834.109 574.656 834.5C574 834.891 573.469 835.43 573.062 836.117V854ZM621.086 837.102C621.086 835.961 620.805 835.055 620.242 834.383C619.68 833.711 618.781 833.375 617.547 833.375C616.469 833.375 615.633 833.633 615.039 834.148C614.445 834.664 614.148 835.383 614.148 836.305H607.07C607.07 834.805 607.516 833.445 608.406 832.227C609.297 830.992 610.555 830.008 612.18 829.273C613.805 828.539 615.719 828.172 617.922 828.172C619.891 828.172 621.648 828.508 623.195 829.18C624.742 829.836 625.961 830.828 626.852 832.156C627.742 833.484 628.188 835.148 628.188 837.148V847.742C628.188 849.242 628.273 850.43 628.445 851.305C628.633 852.18 628.891 852.945 629.219 853.602V854H622.094C621.812 853.406 621.586 852.664 621.414 851.773C620.758 852.523 619.914 853.164 618.883 853.695C617.867 854.211 616.609 854.469 615.109 854.469C613.5 854.469 612.039 854.148 610.727 853.508C609.43 852.852 608.398 851.953 607.633 850.812C606.867 849.656 606.484 848.336 606.484 846.852C606.484 844.195 607.469 842.141 609.438 840.688C611.406 839.219 614.336 838.484 618.227 838.484H621.086V837.102ZM616.68 849.102C617.773 849.102 618.695 848.867 619.445 848.398C620.211 847.914 620.758 847.383 621.086 846.805V842.562H618.438C616.719 842.562 615.477 842.938 614.711 843.688C613.945 844.422 613.562 845.312 613.562 846.359C613.562 847.156 613.844 847.812 614.406 848.328C614.969 848.844 615.727 849.102 616.68 849.102ZM640.328 854H633.25V828.641H639.906L640.141 831.664C640.75 830.57 641.523 829.719 642.461 829.109C643.398 828.484 644.484 828.172 645.719 828.172C646.078 828.172 646.453 828.203 646.844 828.266C647.25 828.312 647.578 828.383 647.828 828.477L647.734 835.297C647.391 835.25 646.977 835.211 646.492 835.18C646.023 835.133 645.609 835.109 645.25 835.109C642.734 835.109 641.094 835.93 640.328 837.57V854ZM658 854H650.922V817.977H658V837.664L659.195 836.141L665.477 828.641H673.984L664.914 839.164L674.734 854H666.602L660.367 844.039L658 846.406V854ZM690.344 846.922C690.344 846.234 690.008 845.664 689.336 845.211C688.68 844.742 687.312 844.289 685.234 843.852C683.516 843.492 681.977 842.992 680.617 842.352C679.273 841.695 678.203 840.859 677.406 839.844C676.625 838.828 676.234 837.586 676.234 836.117C676.234 834.695 676.641 833.383 677.453 832.18C678.266 830.977 679.43 830.008 680.945 829.273C682.477 828.539 684.305 828.172 686.43 828.172C689.758 828.172 692.375 828.945 694.281 830.492C696.203 832.023 697.164 833.984 697.164 836.375H690.086C690.086 835.422 689.789 834.648 689.195 834.055C688.617 833.445 687.688 833.141 686.406 833.141C685.359 833.141 684.531 833.391 683.922 833.891C683.312 834.391 683.008 835.016 683.008 835.766C683.008 836.484 683.344 837.07 684.016 837.523C684.703 837.961 685.898 838.336 687.602 838.648C689.398 839.008 691.023 839.484 692.477 840.078C693.93 840.656 695.086 841.477 695.945 842.539C696.805 843.586 697.234 844.961 697.234 846.664C697.234 848.164 696.789 849.5 695.898 850.672C695.023 851.844 693.773 852.773 692.148 853.461C690.539 854.133 688.641 854.469 686.453 854.469C684.062 854.469 682.047 854.039 680.406 853.18C678.766 852.32 677.523 851.234 676.68 849.922C675.836 848.594 675.414 847.242 675.414 845.867H682.117C682.18 847.133 682.641 848.055 683.5 848.633C684.375 849.195 685.414 849.477 686.617 849.477C687.836 849.477 688.758 849.242 689.383 848.773C690.023 848.305 690.344 847.688 690.344 846.922ZM353.57 877.102C353.57 876.055 353.93 875.188 354.648 874.5C355.367 873.812 356.328 873.469 357.531 873.469C358.734 873.469 359.688 873.812 360.391 874.5C361.109 875.188 361.469 876.055 361.469 877.102C361.469 878.164 361.109 879.039 360.391 879.727C359.688 880.398 358.734 880.734 357.531 880.734C356.328 880.734 355.367 880.398 354.648 879.727C353.93 879.039 353.57 878.164 353.57 877.102ZM361.094 909H353.992V883.641H361.094V909ZM373.445 909H366.367V883.641H373.023L373.258 886.523C375.055 884.289 377.469 883.172 380.5 883.172C382.094 883.172 383.492 883.484 384.695 884.109C385.898 884.719 386.836 885.734 387.508 887.156C388.18 888.578 388.516 890.5 388.516 892.922V909H381.414V892.875C381.414 891.312 381.078 890.266 380.406 889.734C379.734 889.188 378.766 888.914 377.5 888.914C376.562 888.914 375.758 889.109 375.086 889.5C374.414 889.891 373.867 890.43 373.445 891.117V909ZM404.383 896.086C404.383 893.617 404.852 891.414 405.789 889.477C406.727 887.523 408.094 885.984 409.891 884.859C411.688 883.734 413.867 883.172 416.43 883.172C419.023 883.172 421.219 883.734 423.016 884.859C424.828 885.984 426.195 887.523 427.117 889.477C428.055 891.414 428.523 893.617 428.523 896.086V896.578C428.523 899.031 428.055 901.234 427.117 903.188C426.195 905.125 424.836 906.656 423.039 907.781C421.242 908.906 419.055 909.469 416.477 909.469C413.898 909.469 411.703 908.906 409.891 907.781C408.094 906.656 406.727 905.125 405.789 903.188C404.852 901.234 404.383 899.031 404.383 896.578V896.086ZM411.484 896.578C411.484 897.906 411.641 899.117 411.953 900.211C412.266 901.305 412.789 902.172 413.523 902.812C414.258 903.453 415.242 903.773 416.477 903.773C418.305 903.773 419.586 903.078 420.32 901.688C421.07 900.281 421.445 898.578 421.445 896.578V896.086C421.445 894.789 421.281 893.594 420.953 892.5C420.641 891.406 420.117 890.531 419.383 889.875C418.664 889.203 417.68 888.867 416.43 888.867C415.211 888.867 414.242 889.203 413.523 889.875C412.805 890.531 412.281 891.406 411.953 892.5C411.641 893.594 411.484 894.789 411.484 896.086V896.578ZM439.492 909H432.414V883.641H439.07L439.305 886.523C441.102 884.289 443.516 883.172 446.547 883.172C448.141 883.172 449.539 883.484 450.742 884.109C451.945 884.719 452.883 885.734 453.555 887.156C454.227 888.578 454.562 890.5 454.562 892.922V909H447.461V892.875C447.461 891.312 447.125 890.266 446.453 889.734C445.781 889.188 444.812 888.914 443.547 888.914C442.609 888.914 441.805 889.109 441.133 889.5C440.461 889.891 439.914 890.43 439.492 891.117V909ZM471.367 909.469C468.695 909.469 466.406 908.914 464.5 907.805C462.609 906.695 461.156 905.211 460.141 903.352C459.141 901.492 458.641 899.438 458.641 897.188V896.273C458.641 893.742 459.117 891.492 460.07 889.523C461.039 887.555 462.414 886.008 464.195 884.883C465.977 883.742 468.102 883.172 470.57 883.172C474.242 883.172 477.039 884.312 478.961 886.594C480.883 888.859 481.844 891.875 481.844 895.641V898.641H465.836C466.086 900.188 466.727 901.43 467.758 902.367C468.805 903.289 470.156 903.75 471.812 903.75C473.016 903.75 474.133 903.531 475.164 903.094C476.211 902.641 477.109 901.938 477.859 900.984L481.281 904.898C480.484 906.039 479.25 907.086 477.578 908.039C475.906 908.992 473.836 909.469 471.367 909.469ZM470.523 888.867C469.133 888.867 468.07 889.336 467.336 890.273C466.602 891.195 466.117 892.398 465.883 893.883H474.883V893.32C474.867 892.023 474.508 890.961 473.805 890.133C473.117 889.289 472.023 888.867 470.523 888.867ZM504.578 918.75H497.5V883.641H504.062L504.32 886.055C505.07 885.148 505.961 884.445 506.992 883.945C508.039 883.43 509.25 883.172 510.625 883.172C512.766 883.172 514.57 883.711 516.039 884.789C517.508 885.852 518.617 887.352 519.367 889.289C520.133 891.211 520.516 893.461 520.516 896.039V896.531C520.516 898.984 520.133 901.188 519.367 903.141C518.617 905.094 517.508 906.641 516.039 907.781C514.586 908.906 512.789 909.469 510.648 909.469C509.352 909.469 508.203 909.234 507.203 908.766C506.203 908.297 505.328 907.648 504.578 906.82V918.75ZM513.438 896.039C513.438 893.992 513.078 892.297 512.359 890.953C511.656 889.594 510.453 888.914 508.75 888.914C506.734 888.914 505.344 889.68 504.578 891.211V901.359C504.953 902.109 505.477 902.703 506.148 903.141C506.836 903.562 507.719 903.773 508.797 903.773C509.938 903.773 510.844 903.445 511.516 902.789C512.203 902.133 512.695 901.258 512.992 900.164C513.289 899.055 513.438 897.844 513.438 896.531V896.039ZM532 909H524.898V873H532V909ZM551.008 892.102C551.008 890.961 550.727 890.055 550.164 889.383C549.602 888.711 548.703 888.375 547.469 888.375C546.391 888.375 545.555 888.633 544.961 889.148C544.367 889.664 544.07 890.383 544.07 891.305H536.992C536.992 889.805 537.438 888.445 538.328 887.227C539.219 885.992 540.477 885.008 542.102 884.273C543.727 883.539 545.641 883.172 547.844 883.172C549.812 883.172 551.57 883.508 553.117 884.18C554.664 884.836 555.883 885.828 556.773 887.156C557.664 888.484 558.109 890.148 558.109 892.148V902.742C558.109 904.242 558.195 905.43 558.367 906.305C558.555 907.18 558.812 907.945 559.141 908.602V909H552.016C551.734 908.406 551.508 907.664 551.336 906.773C550.68 907.523 549.836 908.164 548.805 908.695C547.789 909.211 546.531 909.469 545.031 909.469C543.422 909.469 541.961 909.148 540.648 908.508C539.352 907.852 538.32 906.953 537.555 905.812C536.789 904.656 536.406 903.336 536.406 901.852C536.406 899.195 537.391 897.141 539.359 895.688C541.328 894.219 544.258 893.484 548.148 893.484H551.008V892.102ZM546.602 904.102C547.695 904.102 548.617 903.867 549.367 903.398C550.133 902.914 550.68 902.383 551.008 901.805V897.562H548.359C546.641 897.562 545.398 897.938 544.633 898.688C543.867 899.422 543.484 900.312 543.484 901.359C543.484 902.156 543.766 902.812 544.328 903.328C544.891 903.844 545.648 904.102 546.602 904.102ZM573.766 903.773C574.969 903.773 575.938 903.445 576.672 902.789C577.422 902.117 577.805 901.227 577.82 900.117H584.477C584.461 901.945 583.984 903.562 583.047 904.969C582.109 906.375 580.844 907.477 579.25 908.273C577.656 909.07 575.867 909.469 573.883 909.469C571.258 909.469 569.07 908.906 567.32 907.781C565.586 906.641 564.281 905.102 563.406 903.164C562.547 901.211 562.117 899.039 562.117 896.648V896.016C562.117 893.609 562.547 891.438 563.406 889.5C564.281 887.562 565.586 886.023 567.32 884.883C569.07 883.742 571.25 883.172 573.859 883.172C575.953 883.172 577.789 883.578 579.367 884.391C580.961 885.188 582.203 886.336 583.094 887.836C584 889.32 584.461 891.102 584.477 893.18H577.82C577.805 891.992 577.453 890.977 576.766 890.133C576.078 889.289 575.062 888.867 573.719 888.867C572.469 888.867 571.516 889.203 570.859 889.875C570.219 890.547 569.781 891.43 569.547 892.523C569.312 893.602 569.195 894.766 569.195 896.016V896.648C569.195 897.914 569.305 899.094 569.523 900.188C569.758 901.266 570.203 902.133 570.859 902.789C571.516 903.445 572.484 903.773 573.766 903.773ZM600.086 909.469C597.414 909.469 595.125 908.914 593.219 907.805C591.328 906.695 589.875 905.211 588.859 903.352C587.859 901.492 587.359 899.438 587.359 897.188V896.273C587.359 893.742 587.836 891.492 588.789 889.523C589.758 887.555 591.133 886.008 592.914 884.883C594.695 883.742 596.82 883.172 599.289 883.172C602.961 883.172 605.758 884.312 607.68 886.594C609.602 888.859 610.562 891.875 610.562 895.641V898.641H594.555C594.805 900.188 595.445 901.43 596.477 902.367C597.523 903.289 598.875 903.75 600.531 903.75C601.734 903.75 602.852 903.531 603.883 903.094C604.93 902.641 605.828 901.938 606.578 900.984L610 904.898C609.203 906.039 607.969 907.086 606.297 908.039C604.625 908.992 602.555 909.469 600.086 909.469ZM599.242 888.867C597.852 888.867 596.789 889.336 596.055 890.273C595.32 891.195 594.836 892.398 594.602 893.883H603.602V893.32C603.586 892.023 603.227 890.961 602.523 890.133C601.836 889.289 600.742 888.867 599.242 888.867ZM614.641 905.508C614.641 904.445 615 903.555 615.719 902.836C616.453 902.117 617.422 901.758 618.625 901.758C619.828 901.758 620.789 902.117 621.508 902.836C622.227 903.555 622.586 904.445 622.586 905.508C622.586 906.57 622.227 907.461 621.508 908.18C620.789 908.898 619.828 909.258 618.625 909.258C617.422 909.258 616.453 908.898 615.719 908.18C615 907.461 614.641 906.57 614.641 905.508Z"
        fill="white"
    />
    <circle cx="465" cy="421" r="139.5" stroke="#3521B5" stroke-width="5" />
    <circle cx="461" cy="423" r="75.5" stroke="#3521B5" stroke-width="5" />
    <path d="M890 805H826V866H757V939H690V1007H620V1080H960V738H890V805Z" fill="#3521B5" />
    <path
        d="M70.4994 469L70.0137 468.881L70.0131 468.884L70.4994 469ZM112.499 580L112.204 580.404L112.204 580.404L112.499 580ZM321 571.5L315.275 570.756L317.493 576.086L321 571.5ZM97.9995 432L97.7222 431.584L97.6984 431.6L97.6765 431.618L97.9995 432ZM132.999 415C132.825 414.531 132.825 414.531 132.825 414.531C132.825 414.531 132.825 414.531 132.825 414.531C132.825 414.531 132.825 414.531 132.825 414.531C132.824 414.531 132.824 414.532 132.824 414.532C132.823 414.532 132.821 414.533 132.82 414.533C132.816 414.535 132.811 414.536 132.804 414.539C132.791 414.544 132.77 414.552 132.744 414.562C132.69 414.582 132.611 414.612 132.507 414.651C132.3 414.73 131.994 414.846 131.601 414.998C130.816 415.302 129.68 415.747 128.279 416.314L128.654 417.241C130.05 416.676 131.18 416.233 131.962 415.931C132.353 415.78 132.656 415.664 132.862 415.586C132.964 415.547 133.043 415.518 133.095 415.498C133.121 415.488 133.141 415.481 133.154 415.476C133.161 415.473 133.166 415.471 133.169 415.47C133.171 415.47 133.172 415.469 133.173 415.469C133.173 415.469 133.173 415.469 133.174 415.469C133.174 415.469 133.174 415.468 133.174 415.468C133.174 415.468 133.174 415.468 133.174 415.468C133.174 415.468 133.174 415.468 132.999 415ZM119.298 420.14C116.509 421.389 113.496 422.8 110.468 424.322L110.918 425.215C113.929 423.701 116.929 422.297 119.707 421.053L119.298 420.14ZM101.873 428.985C100.433 429.836 99.0406 430.705 97.7222 431.584L98.2769 432.416C99.5781 431.548 100.955 430.689 102.382 429.845L101.873 428.985ZM97.6765 431.618C96.4083 432.691 94.8116 433.823 92.9846 435.16L93.5753 435.967C95.3792 434.646 97.0192 433.484 98.3225 432.382L97.6765 431.618ZM83.8835 442.841C81.3793 445.408 78.8827 448.493 76.6193 452.301L77.4789 452.812C79.6975 449.08 82.1439 446.056 84.5993 443.539L83.8835 442.841ZM71.677 463.147C71.0676 464.947 70.5099 466.855 70.0137 468.881L70.985 469.119C71.4746 467.12 72.0242 465.239 72.6241 463.468L71.677 463.147ZM70.0131 468.884C69.6292 470.489 69.2718 472.04 68.9405 473.542L69.9171 473.758C70.247 472.262 70.603 470.716 70.9856 469.116L70.0131 468.884ZM67.1081 482.933C66.5514 486.3 66.1589 489.435 65.9231 492.432L66.92 492.511C67.1533 489.545 67.542 486.44 68.0947 483.096L67.1081 482.933ZM65.706 502.021C65.8213 505.198 66.1258 508.333 66.6072 511.566L67.5963 511.419C67.1198 508.219 66.8192 505.121 66.7054 501.985L65.706 502.021ZM68.4023 520.966C68.7432 522.473 69.1142 524.021 69.5143 525.621L70.4844 525.379C70.0859 523.785 69.7167 522.244 69.3776 520.746L68.4023 520.966ZM69.5143 525.621C69.8766 527.071 70.2731 528.497 70.7066 529.903L71.6622 529.609C71.2342 528.22 70.8426 526.811 70.4844 525.379L69.5143 525.621ZM73.8238 538.228C75.0171 540.903 76.3831 543.521 77.9456 546.104L78.8013 545.587C77.2601 543.039 75.9134 540.458 74.7371 537.821L73.8238 538.228ZM82.9793 553.431C84.72 555.688 86.6332 557.935 88.7354 560.189L89.4668 559.507C87.3842 557.274 85.4914 555.051 83.7711 552.821L82.9793 553.431ZM95.0274 566.439C97.103 568.362 99.3237 570.301 101.699 572.266L102.337 571.495C99.9741 569.541 97.7676 567.614 95.7069 565.706L95.0274 566.439ZM108.645 577.756C109.801 578.632 110.987 579.514 112.204 580.404L112.794 579.596C111.581 578.71 110.4 577.831 109.249 576.959L108.645 577.756ZM112.204 580.404C113.603 581.426 115.054 582.41 116.552 583.357L117.086 582.512C115.606 581.576 114.174 580.604 112.794 579.596L112.204 580.404ZM125.743 588.453C128.834 589.96 132.054 591.347 135.371 592.623L135.73 591.69C132.437 590.423 129.243 589.047 126.181 587.555L125.743 588.453ZM145.289 596.035C148.609 597.053 151.988 597.977 155.399 598.811L155.636 597.839C152.243 597.009 148.882 596.091 145.582 595.079L145.289 596.035ZM165.639 601.04C169.09 601.704 172.543 602.284 175.97 602.787L176.115 601.798C172.702 601.297 169.263 600.719 165.828 600.058L165.639 601.04ZM186.365 604.093C189.918 604.466 193.409 604.759 196.803 604.978L196.867 603.98C193.486 603.762 190.009 603.47 186.47 603.099L186.365 604.093ZM207.267 605.439C209.056 605.48 210.803 605.5 212.5 605.5L212.5 604.5C210.811 604.5 209.072 604.48 207.29 604.439L207.267 605.439ZM212.5 605.5C213.973 605.5 215.564 605.418 217.256 605.262L217.164 604.266C215.496 604.42 213.936 604.5 212.5 604.5L212.5 605.5ZM226.71 603.867C229.657 603.303 232.774 602.609 236.011 601.811L235.771 600.84C232.548 601.634 229.449 602.325 226.522 602.885L226.71 603.867ZM245.215 599.364C248.209 598.516 251.261 597.607 254.337 596.654L254.041 595.698C250.971 596.65 247.927 597.557 244.943 598.402L245.215 599.364ZM263.396 593.748C266.415 592.749 269.427 591.724 272.401 590.689L272.073 589.744C269.103 590.778 266.095 591.801 263.081 592.799L263.396 593.748ZM281.362 587.504C284.425 586.393 287.409 585.29 290.276 584.213L289.925 583.277C287.061 584.352 284.08 585.454 281.021 586.564L281.362 587.504ZM299.167 580.822C302.387 579.575 305.359 578.404 308.01 577.347L307.639 576.418C304.991 577.474 302.022 578.644 298.806 579.889L299.167 580.822ZM316.849 573.768C316.912 573.742 316.974 573.717 317.036 573.691L316.655 572.767C316.594 572.792 316.532 572.818 316.469 572.843L316.849 573.768ZM70.4994 469L69.528 468.762L69.5268 468.767L70.4994 469ZM112.499 580L111.909 580.807L111.909 580.807L112.499 580ZM321 571.5L309.549 570.01L313.985 580.672L321 571.5ZM97.9995 432L97.4448 431.168L97.3972 431.2L97.3535 431.237L97.9995 432ZM132.999 415C132.651 414.063 132.651 414.063 132.651 414.063C132.651 414.063 132.651 414.063 132.651 414.063C132.65 414.063 132.65 414.063 132.65 414.063C132.65 414.063 132.65 414.063 132.649 414.063C132.648 414.064 132.647 414.064 132.645 414.065C132.641 414.066 132.636 414.068 132.629 414.071C132.615 414.076 132.595 414.084 132.568 414.094C132.514 414.114 132.434 414.144 132.33 414.183C132.122 414.262 131.815 414.379 131.421 414.532C130.633 414.836 129.495 415.283 128.092 415.851L128.842 417.705C130.235 417.141 131.363 416.698 132.142 416.397C132.532 416.246 132.834 416.131 133.039 416.054C133.141 416.015 133.219 415.986 133.271 415.966C133.297 415.956 133.316 415.949 133.329 415.944C133.336 415.942 133.341 415.94 133.344 415.939C133.345 415.938 133.346 415.938 133.347 415.937C133.348 415.937 133.348 415.937 133.348 415.937C133.348 415.937 133.348 415.937 133.348 415.937C133.348 415.937 133.348 415.937 133.348 415.937C133.348 415.937 133.348 415.937 132.999 415ZM119.094 419.684C116.3 420.935 113.279 422.349 110.244 423.875L111.142 425.662C114.145 424.152 117.138 422.751 119.911 421.509L119.094 419.684ZM101.619 428.554C100.172 429.41 98.7718 430.283 97.4448 431.168L98.5542 432.832C99.8468 431.97 101.216 431.116 102.637 430.276L101.619 428.554ZM97.3535 431.237C96.1029 432.295 94.5279 433.411 92.6892 434.757L93.8707 436.371C95.663 435.058 97.3247 433.881 98.6455 432.763L97.3535 431.237ZM83.5256 442.492C80.997 445.084 78.4752 448.2 76.1895 452.045L77.9087 453.067C80.105 449.373 82.5263 446.38 84.9572 443.889L83.5256 442.492ZM71.2034 462.987C70.5893 464.8 70.0276 466.722 69.5281 468.762L71.4706 469.238C71.9569 467.253 72.5025 465.386 73.0977 463.629L71.2034 462.987ZM69.5268 468.767C69.1423 470.375 68.7843 471.929 68.4523 473.435L70.4053 473.865C70.7345 472.372 71.0899 470.83 71.4719 469.233L69.5268 468.767ZM66.6148 482.852C66.0562 486.231 65.6617 489.379 65.4246 492.393L67.4185 492.55C67.6505 489.601 68.0373 486.509 68.588 483.178L66.6148 482.852ZM65.2063 502.039C65.3224 505.236 65.6288 508.39 66.1126 511.64L68.0908 511.346C67.6168 508.162 67.3181 505.082 67.205 501.966L65.2063 502.039ZM67.9146 521.077C68.2565 522.588 68.6284 524.139 69.0292 525.742L70.9695 525.257C70.5717 523.666 70.2034 522.129 69.8653 520.635L67.9146 521.077ZM69.0292 525.742C69.3937 527.2 69.7925 528.635 70.2288 530.051L72.14 529.462C71.7148 528.082 71.3256 526.682 70.9695 525.257L69.0292 525.742ZM73.3672 538.432C74.569 541.126 75.9445 543.762 77.5178 546.363L79.2291 545.328C77.6987 542.798 76.3616 540.235 75.1937 537.617L73.3672 538.432ZM82.5834 553.737C84.3343 556.007 86.2577 558.265 88.3698 560.53L89.8324 559.166C87.7597 556.943 85.8771 554.732 84.167 552.515L82.5834 553.737ZM94.6877 566.806C96.7707 568.736 98.9984 570.68 101.38 572.651L102.655 571.11C100.299 569.161 98.0999 567.241 96.0467 565.339L94.6877 566.806ZM108.343 578.155C109.501 579.032 110.689 579.916 111.909 580.807L113.089 579.193C111.878 578.308 110.699 577.431 109.551 576.561L108.343 578.155ZM111.909 580.807C113.317 581.836 114.777 582.827 116.285 583.78L117.354 582.089C115.882 581.159 114.459 580.194 113.089 579.193L111.909 580.807ZM125.524 588.903C128.629 590.416 131.863 591.809 135.192 593.09L135.91 591.223C132.629 589.961 129.448 588.591 126.4 587.105L125.524 588.903ZM145.142 596.513C148.472 597.534 151.861 598.46 155.28 599.296L155.755 597.354C152.371 596.526 149.019 595.61 145.729 594.601L145.142 596.513ZM165.544 601.531C169.003 602.197 172.463 602.778 175.898 603.282L176.188 601.303C172.781 600.803 169.35 600.227 165.922 599.567L165.544 601.531ZM186.313 604.59C189.873 604.964 193.37 605.257 196.77 605.477L196.899 603.481C193.525 603.263 190.054 602.972 186.522 602.601L186.313 604.59ZM207.256 605.939C209.049 605.98 210.799 606 212.5 606L212.5 604C210.815 604 209.08 603.98 207.301 603.94L207.256 605.939ZM212.5 606C213.991 606 215.597 605.917 217.301 605.759L217.118 603.768C215.462 603.921 213.918 604 212.5 604L212.5 606ZM226.804 604.358C229.761 603.792 232.887 603.096 236.13 602.296L235.652 600.354C232.435 601.147 229.345 601.835 226.428 602.394L226.804 604.358ZM245.351 599.845C248.349 598.996 251.405 598.086 254.485 597.131L253.893 595.221C250.827 596.171 247.787 597.077 244.806 597.921L245.351 599.845ZM263.553 594.223C266.574 593.223 269.589 592.197 272.566 591.161L271.908 589.272C268.94 590.305 265.936 591.328 262.924 592.324L263.553 594.223ZM281.532 587.974C284.597 586.862 287.583 585.758 290.452 584.681L289.749 582.809C286.886 583.883 283.908 584.985 280.85 586.094L281.532 587.974ZM299.348 581.288C302.569 580.04 305.543 578.869 308.195 577.811L307.454 575.953C304.807 577.009 301.84 578.178 298.626 579.423L299.348 581.288Z"
        fill="#3521B5"
    />
    <path
        d="M427 191.5L426.758 191.062L427 191.5ZM414 329L414.095 323.227L409.048 326.032L414 329ZM661 221C661.369 220.662 661.369 220.662 661.369 220.662C661.369 220.662 661.369 220.662 661.369 220.662C661.369 220.662 661.369 220.662 661.369 220.662C661.368 220.662 661.368 220.662 661.368 220.661C661.367 220.661 661.366 220.66 661.365 220.658C661.363 220.656 661.359 220.652 661.354 220.647C661.345 220.636 661.331 220.621 661.312 220.601C661.275 220.561 661.22 220.501 661.147 220.422C661 220.265 660.783 220.034 660.497 219.733C659.925 219.131 659.079 218.254 657.982 217.149L657.272 217.854C658.364 218.953 659.205 219.825 659.772 220.422C660.056 220.72 660.271 220.95 660.415 221.104C660.487 221.182 660.541 221.24 660.578 221.279C660.596 221.299 660.609 221.314 660.618 221.323C660.623 221.328 660.626 221.332 660.628 221.334C660.629 221.335 660.63 221.336 660.63 221.337C660.631 221.337 660.631 221.337 660.631 221.337C660.631 221.337 660.631 221.338 660.631 221.338C660.631 221.338 660.631 221.338 660.631 221.338C660.631 221.338 660.631 221.338 661 221ZM650.98 210.388C648.844 208.404 646.416 206.215 643.731 203.896L643.078 204.652C645.753 206.963 648.172 209.145 650.299 211.121L650.98 210.388ZM636.253 197.668C633.816 195.713 631.239 193.717 628.538 191.717L627.943 192.521C630.633 194.512 633.2 196.5 635.627 198.448L636.253 197.668ZM620.586 186.082C617.937 184.29 615.201 182.523 612.389 180.809L611.868 181.663C614.666 183.368 617.389 185.126 620.025 186.91L620.586 186.082ZM603.934 175.957C601.082 174.423 598.17 172.963 595.21 171.603L594.792 172.512C597.731 173.863 600.625 175.313 603.461 176.838L603.934 175.957ZM586.206 167.848C583.146 166.704 580.049 165.687 576.926 164.82L576.659 165.783C579.751 166.642 582.821 167.65 585.856 168.784L586.206 167.848ZM567.396 162.681C565.785 162.408 564.171 162.181 562.555 162.003L562.445 162.997C564.042 163.173 565.637 163.397 567.229 163.667L567.396 162.681ZM562.555 162.003C560.826 161.813 559.141 161.623 557.494 161.436L557.381 162.43C559.029 162.617 560.715 162.807 562.445 162.997L562.555 162.003ZM547.38 160.281C543.858 159.884 540.505 159.523 537.271 159.22L537.178 160.216C540.403 160.518 543.749 160.878 547.268 161.274L547.38 160.281ZM527.109 158.472C523.65 158.304 520.274 158.246 516.908 158.332L516.934 159.332C520.271 159.246 523.622 159.304 527.061 159.471L527.109 158.472ZM506.725 159.069C503.451 159.466 500.12 160.027 496.665 160.785L496.88 161.762C500.304 161.011 503.604 160.455 506.845 160.062L506.725 159.069ZM486.802 163.388C483.723 164.33 480.521 165.424 477.159 166.687L477.51 167.623C480.855 166.367 484.038 165.279 487.094 164.344L486.802 163.388ZM467.708 170.502C464.747 171.773 461.661 173.164 458.431 174.683L458.856 175.588C462.077 174.073 465.153 172.687 468.102 171.421L467.708 170.502ZM449.277 179.138C446.368 180.597 443.348 182.15 440.207 183.802L440.672 184.687C443.809 183.038 446.823 181.488 449.725 180.032L449.277 179.138ZM431.258 188.594C429.784 189.397 428.284 190.219 426.758 191.062L427.242 191.938C428.766 191.096 430.264 190.274 431.736 189.472L431.258 188.594ZM426.758 191.062C425.291 191.873 423.878 192.708 422.518 193.566L423.051 194.412C424.395 193.564 425.791 192.739 427.242 191.938L426.758 191.062ZM414.658 199.246C412.056 201.401 409.708 203.662 407.594 206.012L408.338 206.681C410.418 204.367 412.731 202.141 415.296 200.016L414.658 199.246ZM401.671 213.732C399.867 216.512 398.325 219.38 397.021 222.315L397.935 222.721C399.218 219.833 400.735 217.011 402.51 214.276L401.671 213.732ZM393.742 231.494C392.871 234.636 392.226 237.824 391.777 241.038L392.767 241.176C393.21 238.003 393.848 234.857 394.706 231.762L393.742 231.494ZM390.993 250.744C390.91 253.993 390.998 257.245 391.228 260.475L392.225 260.404C391.998 257.203 391.911 253.984 391.993 250.77L390.993 250.744ZM392.324 270.137C392.823 273.374 393.44 276.565 394.148 279.687L395.123 279.466C394.42 276.365 393.807 273.197 393.312 269.985L392.324 270.137ZM396.593 289.1C397.529 292.306 398.535 295.401 399.573 298.352L400.517 298.02C399.484 295.085 398.484 292.007 397.553 288.82L396.593 289.1ZM403.027 307.435C404.359 310.696 405.677 313.678 406.907 316.32L407.813 315.898C406.59 313.269 405.279 310.301 403.953 307.057L403.027 307.435ZM411.215 325.005C411.269 325.105 411.321 325.204 411.373 325.302L412.256 324.831C412.204 324.735 412.152 324.636 412.099 324.536L411.215 325.005ZM427 191.5L426.516 190.625L427 191.5ZM414 329L414.205 317.455L404.104 323.05L414 329ZM661 221C661.738 220.325 661.738 220.325 661.738 220.325C661.738 220.325 661.738 220.325 661.738 220.325C661.738 220.325 661.737 220.325 661.737 220.324C661.737 220.324 661.737 220.324 661.736 220.324C661.736 220.323 661.735 220.322 661.734 220.32C661.731 220.317 661.727 220.313 661.722 220.308C661.713 220.298 661.698 220.282 661.679 220.262C661.642 220.221 661.586 220.161 661.512 220.081C661.365 219.923 661.146 219.69 660.859 219.388C660.285 218.784 659.436 217.905 658.337 216.797L656.917 218.206C658.006 219.303 658.845 220.172 659.41 220.767C659.692 221.064 659.906 221.292 660.049 221.445C660.121 221.522 660.175 221.58 660.21 221.619C660.228 221.638 660.241 221.652 660.25 221.662C660.254 221.666 660.258 221.67 660.26 221.672C660.261 221.673 660.261 221.674 660.262 221.675C660.262 221.675 660.262 221.675 660.262 221.675C660.262 221.675 660.262 221.675 660.262 221.675C660.262 221.675 660.262 221.675 660.262 221.675C660.262 221.675 660.262 221.675 661 221ZM651.32 210.022C649.18 208.034 646.748 205.841 644.058 203.517L642.751 205.031C645.421 207.338 647.835 209.515 649.959 211.487L651.32 210.022ZM636.566 197.278C634.124 195.319 631.542 193.319 628.836 191.316L627.646 192.923C630.329 194.91 632.891 196.894 635.315 198.838L636.566 197.278ZM620.866 185.668C618.212 183.872 615.468 182.101 612.649 180.382L611.608 182.09C614.398 183.791 617.115 185.545 619.745 187.324L620.866 185.668ZM604.171 175.517C601.31 173.978 598.389 172.514 595.418 171.149L594.583 172.966C597.512 174.312 600.397 175.758 603.224 177.278L604.171 175.517ZM586.381 167.379C583.308 166.231 580.198 165.209 577.06 164.338L576.525 166.265C579.602 167.119 582.658 168.124 585.681 169.253L586.381 167.379ZM567.48 162.188C565.86 161.913 564.236 161.685 562.609 161.506L562.391 163.494C563.977 163.668 565.562 163.891 567.145 164.16L567.48 162.188ZM562.609 161.506C560.882 161.316 559.197 161.126 557.551 160.939L557.325 162.927C558.973 163.114 560.66 163.304 562.391 163.494L562.609 161.506ZM547.436 159.784C543.913 159.387 540.556 159.026 537.318 158.722L537.132 160.714C540.351 161.015 543.694 161.375 547.212 161.771L547.436 159.784ZM527.134 157.973C523.664 157.804 520.276 157.745 516.895 157.833L516.947 159.832C520.27 159.746 523.608 159.804 527.036 159.971L527.134 157.973ZM506.665 158.573C503.375 158.971 500.028 159.536 496.558 160.297L496.987 162.25C500.395 161.503 503.68 160.949 506.905 160.558L506.665 158.573ZM486.656 162.91C483.566 163.855 480.354 164.952 476.983 166.219L477.686 168.091C481.022 166.838 484.195 165.754 487.241 164.822L486.656 162.91ZM467.51 170.042C464.544 171.316 461.453 172.71 458.218 174.231L459.069 176.041C462.285 174.528 465.356 173.144 468.3 171.88L467.51 170.042ZM449.052 178.691C446.141 180.152 443.118 181.706 439.974 183.359L440.905 185.129C444.039 183.482 447.05 181.933 449.949 180.479L449.052 178.691ZM431.019 188.155C429.543 188.958 428.043 189.781 426.516 190.625L427.484 192.375C429.007 191.534 430.504 190.713 431.975 189.911L431.019 188.155ZM426.516 190.625C425.041 191.44 423.62 192.28 422.251 193.144L423.318 194.835C424.654 193.992 426.041 193.172 427.484 192.375L426.516 190.625ZM414.339 198.861C411.719 201.031 409.353 203.309 407.222 205.678L408.71 207.015C410.773 204.72 413.069 202.51 415.615 200.401L414.339 198.861ZM401.252 213.46C399.432 216.262 397.878 219.154 396.564 222.112L398.392 222.924C399.665 220.059 401.169 217.26 402.929 214.548L401.252 213.46ZM393.26 231.361C392.383 234.525 391.733 237.735 391.282 240.968L393.262 241.245C393.703 238.092 394.336 234.968 395.187 231.895L393.26 231.361ZM390.493 250.732C390.41 253.998 390.498 257.265 390.729 260.51L392.724 260.368C392.497 257.182 392.411 253.979 392.492 250.782L390.493 250.732ZM391.83 270.213C392.33 273.462 392.951 276.665 393.661 279.797L395.611 279.355C394.91 276.265 394.299 273.108 393.807 269.908L391.83 270.213ZM396.113 289.24C397.052 292.456 398.061 295.559 399.102 298.518L400.988 297.854C399.959 294.926 398.961 291.858 398.033 288.679L396.113 289.24ZM402.565 307.625C403.9 310.893 405.221 313.882 406.453 316.53L408.267 315.687C407.046 313.064 405.738 310.104 404.416 306.868L402.565 307.625Z"
        fill="#3521B5"
    />
    <path
        d="M503.5 738L503.659 737.526L503.659 737.526L503.5 738ZM448.5 692L448.211 697.766L453.349 695.133L448.5 692ZM660 747.5L660.083 747.993L660 747.5ZM742.5 669.5C742.015 669.377 742.015 669.377 742.015 669.377C742.015 669.377 742.015 669.377 742.015 669.377C742.015 669.377 742.015 669.377 742.015 669.377C742.015 669.377 742.015 669.377 742.015 669.378C742.015 669.378 742.015 669.38 742.014 669.381C742.013 669.384 742.012 669.389 742.01 669.395C742.007 669.408 742.002 669.428 741.995 669.454C741.981 669.506 741.96 669.585 741.932 669.689C741.875 669.897 741.788 670.207 741.669 670.61C741.432 671.416 741.067 672.595 740.557 674.082L741.503 674.406C742.018 672.904 742.387 671.711 742.629 670.893C742.749 670.483 742.838 670.167 742.897 669.953C742.926 669.846 742.948 669.764 742.962 669.709C742.969 669.681 742.975 669.66 742.979 669.646C742.98 669.638 742.982 669.633 742.983 669.629C742.983 669.627 742.984 669.626 742.984 669.625C742.984 669.624 742.984 669.624 742.984 669.624C742.984 669.623 742.984 669.623 742.984 669.623C742.984 669.623 742.984 669.623 742.984 669.623C742.984 669.623 742.984 669.623 742.5 669.5ZM736.93 683.328C735.729 686.058 734.288 689.074 732.579 692.268L733.461 692.739C735.182 689.522 736.635 686.482 737.845 683.73L736.93 683.328ZM727.545 700.857C725.831 703.534 723.938 706.261 721.855 708.988L722.65 709.595C724.751 706.844 726.659 704.094 728.387 701.397L727.545 700.857ZM715.482 716.61C713.298 718.996 710.953 721.342 708.438 723.613L709.108 724.356C711.648 722.062 714.016 719.693 716.22 717.285L715.482 716.61ZM700.747 729.89C698.136 731.808 695.375 733.634 692.456 735.339L692.961 736.202C695.911 734.479 698.701 732.634 701.339 730.696L700.747 729.89ZM683.64 739.878C680.696 741.201 677.615 742.401 674.392 743.457L674.703 744.408C677.961 743.34 681.074 742.127 684.05 740.791L683.64 739.878ZM664.808 746.063C663.209 746.413 661.579 746.728 659.917 747.007L660.083 747.993C661.76 747.711 663.406 747.393 665.022 747.04L664.808 746.063ZM659.917 747.007C658.277 747.282 656.647 747.547 655.026 747.8L655.181 748.788C656.805 748.534 658.439 748.269 660.083 747.993L659.917 747.007ZM645.233 749.219C641.92 749.659 638.65 750.054 635.421 750.403L635.529 751.397C638.766 751.047 642.044 750.652 645.365 750.21L645.233 749.219ZM625.575 751.342C622.24 751.617 618.951 751.843 615.705 752.022L615.76 753.02C619.015 752.841 622.313 752.614 625.657 752.339L625.575 751.342ZM605.824 752.428C602.482 752.517 599.187 752.556 595.938 752.546L595.936 753.546C599.194 753.556 602.499 753.517 605.851 753.427L605.824 752.428ZM586.054 752.364C582.714 752.251 579.424 752.086 576.18 751.871L576.114 752.868C579.368 753.084 582.67 753.25 586.02 753.364L586.054 752.364ZM566.328 751.054C563.005 750.722 559.733 750.338 556.51 749.905L556.376 750.896C559.611 751.331 562.895 751.716 566.229 752.049L566.328 751.054ZM546.738 748.417C543.451 747.858 540.215 747.247 537.026 746.588L536.824 747.568C540.024 748.229 543.271 748.842 546.57 749.403L546.738 748.417ZM527.384 744.417C524.147 743.628 520.961 742.79 517.82 741.907L517.55 742.869C520.701 743.756 523.899 744.597 527.147 745.389L527.384 744.417ZM508.354 739.066C506.777 738.564 505.213 738.05 503.659 737.526L503.34 738.474C504.898 739 506.468 739.515 508.05 740.019L508.354 739.066ZM503.659 737.526C502.187 737.03 500.75 736.51 499.348 735.97L498.989 736.904C500.404 737.448 501.854 737.973 503.34 738.474L503.659 737.526ZM490.956 732.312C488.116 730.922 485.446 729.451 482.938 727.927L482.419 728.781C484.952 730.321 487.648 731.806 490.516 733.21L490.956 732.312ZM475.356 722.815C472.788 720.903 470.438 718.954 468.293 717.011L467.622 717.752C469.79 719.716 472.164 721.685 474.758 723.617L475.356 722.815ZM461.816 710.543C459.558 708.056 457.636 705.665 456.02 703.472L455.215 704.065C456.849 706.284 458.793 708.701 461.075 711.215L461.816 710.543ZM451.034 695.84C451.018 695.812 451.003 695.785 450.987 695.758L450.117 696.251C450.133 696.279 450.149 696.307 450.165 696.334L451.034 695.84ZM503.5 738L503.819 737.053L503.819 737.053L503.5 738ZM448.5 692L447.933 703.533L458.204 698.258L448.5 692ZM660 747.5L660.165 748.486L660 747.5ZM742.5 669.5C741.531 669.254 741.531 669.254 741.531 669.254C741.531 669.254 741.531 669.254 741.531 669.254C741.531 669.254 741.531 669.254 741.531 669.254C741.531 669.254 741.531 669.254 741.53 669.254C741.53 669.255 741.53 669.256 741.53 669.257C741.529 669.26 741.528 669.264 741.526 669.27C741.523 669.282 741.518 669.301 741.512 669.327C741.498 669.377 741.478 669.455 741.45 669.557C741.394 669.762 741.308 670.069 741.19 670.469C740.954 671.268 740.591 672.44 740.084 673.92L741.976 674.568C742.493 673.059 742.865 671.859 743.108 671.034C743.23 670.621 743.319 670.302 743.379 670.085C743.409 669.976 743.431 669.893 743.446 669.836C743.453 669.808 743.459 669.786 743.463 669.771C743.465 669.763 743.466 669.757 743.467 669.753C743.468 669.751 743.468 669.749 743.468 669.748C743.469 669.748 743.469 669.747 743.469 669.747C743.469 669.747 743.469 669.746 743.469 669.746C743.469 669.746 743.469 669.746 743.469 669.746C743.469 669.746 743.469 669.746 742.5 669.5ZM736.472 683.126C735.276 685.846 733.84 688.851 732.139 692.032L733.902 692.975C735.63 689.745 737.088 686.694 738.303 683.932L736.472 683.126ZM727.124 700.588C725.416 703.253 723.532 705.969 721.458 708.684L723.047 709.898C725.157 707.136 727.073 704.375 728.808 701.666L727.124 700.588ZM715.113 716.273C712.939 718.647 710.606 720.982 708.103 723.242L709.443 724.727C711.996 722.422 714.374 720.042 716.588 717.623L715.113 716.273ZM700.451 729.487C697.854 731.395 695.107 733.211 692.204 734.907L693.213 736.634C696.179 734.901 698.983 733.047 701.635 731.099L700.451 729.487ZM683.435 739.422C680.507 740.737 677.443 741.931 674.236 742.982L674.859 744.883C678.133 743.81 681.263 742.59 684.254 741.247L683.435 739.422ZM664.701 745.575C663.11 745.922 661.488 746.236 659.834 746.514L660.165 748.486C661.851 748.203 663.505 747.883 665.128 747.529L664.701 745.575ZM659.834 746.514C658.196 746.789 656.567 747.053 654.949 747.306L655.258 749.282C656.884 749.028 658.52 748.763 660.165 748.486L659.834 746.514ZM645.167 748.723C641.858 749.163 638.592 749.557 635.367 749.906L635.583 751.894C638.824 751.544 642.106 751.148 645.431 750.706L645.167 748.723ZM625.534 750.844C622.204 751.118 618.918 751.344 615.677 751.523L615.787 753.52C619.047 753.34 622.35 753.113 625.698 752.837L625.534 750.844ZM605.811 751.928C602.474 752.017 599.184 752.056 595.94 752.046L595.934 754.046C599.198 754.056 602.507 754.017 605.864 753.927L605.811 751.928ZM586.071 751.865C582.737 751.751 579.451 751.586 576.214 751.372L576.081 753.367C579.341 753.583 582.647 753.75 586.003 753.864L586.071 751.865ZM566.378 750.556C563.061 750.225 559.794 749.842 556.576 749.409L556.31 751.391C559.55 751.827 562.839 752.213 566.179 752.546L566.378 750.556ZM546.822 747.924C543.541 747.366 540.31 746.756 537.128 746.099L536.723 748.057C539.928 748.72 543.182 749.334 546.486 749.896L546.822 747.924ZM527.502 743.931C524.272 743.144 521.091 742.307 517.956 741.425L517.414 743.35C520.571 744.238 523.775 745.081 527.029 745.874L527.502 743.931ZM508.506 738.59C506.932 738.088 505.37 737.576 503.819 737.053L503.18 738.948C504.741 739.474 506.314 739.99 507.898 740.495L508.506 738.59ZM503.819 737.053C502.354 736.558 500.923 736.041 499.528 735.504L498.809 737.37C500.231 737.918 501.688 738.444 503.18 738.948L503.819 737.053ZM491.176 731.863C488.349 730.48 485.693 729.016 483.198 727.499L482.159 729.208C484.705 730.756 487.414 732.249 490.296 733.659L491.176 731.863ZM475.654 722.414C473.1 720.512 470.763 718.573 468.629 716.64L467.286 718.123C469.465 720.096 471.852 722.076 474.46 724.018L475.654 722.414ZM462.186 710.207C459.94 707.733 458.029 705.356 456.423 703.175L454.813 704.362C456.456 706.593 458.41 709.024 460.705 711.551L462.186 710.207Z"
        fill="#3521B5"
    />
    <g filter="url(#filter0_dd)">
        <rect x="321" y="334" width="317" height="358" rx="3" fill="white" />
        <path
            d="M548.17 469.887V449.291C548.17 448.317 547.781 447.382 547.089 446.692C546.397 446.003 545.459 445.616 544.48 445.616H542.761H422.272V441.971C422.272 441.906 422.287 441.845 422.287 441.784V431.823C422.287 429.712 420.842 428 419.058 428H388.229C386.445 428 385 429.712 385 431.823V445.606L404.849 588.789H413.613L552.936 491.286L548.17 469.887Z"
            fill="#3521B5"
        />
        <path
            d="M561.808 455.874H416.761C410.028 455.874 404.569 461.311 404.569 468.019V585.855C404.569 592.562 410.028 598 416.761 598H561.808C568.541 598 574 592.562 574 585.855V468.019C574 461.311 568.541 455.874 561.808 455.874Z"
            fill="#FFEDB9"
        />
        <path
            fill-rule="evenodd"
            clip-rule="evenodd"
            d="M484.979 551.977C484.29 553.228 483.445 554.346 482.442 555.331C479.267 558.444 475.152 560 470.098 560H452V494H466.592C472.206 494 476.625 495.36 479.851 498.08C482.082 499.946 483.548 502.545 484.248 505.876H525V508.494L485.652 528.859L525 549.291V551.977H484.979ZM485.839 550.141C486.775 547.766 487.243 544.993 487.243 541.823C487.243 539.133 486.697 536.655 485.604 534.389C484.538 532.092 483.077 530.188 481.223 528.677C479.369 527.136 477.286 526.184 474.974 525.821C478.124 525.126 480.537 523.434 482.213 520.745C483.89 518.025 484.728 514.746 484.728 510.908C484.728 509.785 484.668 508.72 484.547 507.712H522.514L483.395 528.145V529.606L522.714 550.141H485.839ZM483.395 550.306C482.796 551.468 482.046 552.508 481.147 553.427C478.454 556.177 474.771 557.552 470.098 557.552H454.057V527.408H470.479C473.755 527.408 476.486 528.088 478.67 529.448C480.855 530.808 482.48 532.591 483.547 534.797C484.639 537.003 485.185 539.375 485.185 541.913C485.185 545.116 484.616 547.858 483.479 550.141H483.395V550.306ZM454.057 496.448H466.592C477.286 496.448 482.633 501.207 482.633 510.727C482.633 520.216 477.54 524.96 467.354 524.96H454.057V496.448Z"
            fill="#5138EE"
        />
    </g>
    <defs>
        <filter
            id="filter0_dd"
            x="282"
            y="307"
            width="395"
            height="436"
            filterUnits="userSpaceOnUse"
            color-interpolation-filters="sRGB"
        >
            <feFlood flood-opacity="0" result="BackgroundImageFix" />
            <feColorMatrix in="SourceAlpha" type="matrix" values="0 0 0 0 0 0 0 0 0 0 0 0 0 0 0 0 0 0 127 0" />
            <feMorphology radius="21" operator="dilate" in="SourceAlpha" result="effect1_dropShadow" />
            <feOffset dy="12" />
            <feGaussianBlur stdDeviation="9" />
            <feColorMatrix type="matrix" values="0 0 0 0 0.2252 0 0 0 0 0.172153 0 0 0 0 0.558333 0 0 0 0.15 0" />
            <feBlend mode="normal" in2="BackgroundImageFix" result="effect1_dropShadow" />
            <feColorMatrix in="SourceAlpha" type="matrix" values="0 0 0 0 0 0 0 0 0 0 0 0 0 0 0 0 0 0 127 0" />
            <feMorphology radius="10" operator="dilate" in="SourceAlpha" result="effect2_dropShadow" />
            <feOffset dy="12" />
            <feGaussianBlur stdDeviation="9" />
            <feColorMatrix type="matrix" values="0 0 0 0 0.271697 0 0 0 0 0.213889 0 0 0 0 0.641667 0 0 0 0.18 0" />
            <feBlend mode="normal" in2="effect1_dropShadow" result="effect2_dropShadow" />
            <feBlend mode="normal" in="SourceGraphic" in2="effect2_dropShadow" result="shape" />
        </filter>
        <clipPath id="clip0">
            <rect width="39" height="74" fill="white" transform="translate(762 590)" />
        </clipPath>
        <clipPath id="clip1">
            <rect width="101" height="61" fill="white" transform="translate(669 236)" />
        </clipPath>
    </defs>
</svg>
