<svg viewBox="0 0 960 1080" fill="none" preserveAspectRatio="xMaxYMid meet" xmlns="http://www.w3.org/2000/svg">
    <path fill="#5138EE" d="M0 0h960v1080H0z" />
    <path
        d="M249 80h-85v82H83v80H0V0h249v80zM611 80v67l-72-67h72zM683 80v67l-72-67h72zM683 147v67l-72-67h72zM755 80v67l-72-67h72zM755 147v67l-72-67h72zM827 80v67l-72-67h72zM827 147v67l-72-67h72z"
        fill="#3521B5"
    />
    <ellipse cx="385.588" cy="407.273" rx="2.58824" ry="2.27273" fill="#3521B5" />
    <ellipse cx="440.765" cy="407.273" rx="2.58826" ry="2.27273" fill="#3521B5" />
    <ellipse cx="495.941" cy="407.273" rx="2.58824" ry="2.27273" fill="#3521B5" />
    <ellipse cx="551.118" cy="407.273" rx="2.58826" ry="2.27273" fill="#3521B5" />
    <ellipse cx="606.294" cy="407.273" rx="2.58826" ry="2.27273" fill="#3521B5" />
    <ellipse cx="661.471" cy="407.273" rx="2.5883" ry="2.27273" fill="#3521B5" />
    <ellipse cx="716.647" cy="407.273" rx="2.58821" ry="2.27273" fill="#3521B5" />
    <ellipse cx="771.824" cy="407.273" rx="2.58817" ry="2.27273" fill="#3521B5" />
    <ellipse cx="827" cy="407.273" rx="2.58832" ry="2.27273" fill="#3521B5" />
    <ellipse cx="882.177" cy="407.273" rx="2.5882" ry="2.27273" fill="#3521B5" />
    <ellipse cx="385.588" cy="479.818" rx="2.58824" ry="2.27273" fill="#3521B5" />
    <ellipse cx="440.765" cy="479.818" rx="2.58826" ry="2.27273" fill="#3521B5" />
    <ellipse cx="495.941" cy="479.818" rx="2.58824" ry="2.27273" fill="#3521B5" />
    <ellipse cx="551.118" cy="479.818" rx="2.58826" ry="2.27273" fill="#3521B5" />
    <ellipse cx="606.294" cy="479.818" rx="2.58826" ry="2.27273" fill="#3521B5" />
    <ellipse cx="661.471" cy="479.818" rx="2.5883" ry="2.27273" fill="#3521B5" />
    <ellipse cx="716.647" cy="479.818" rx="2.58821" ry="2.27273" fill="#3521B5" />
    <ellipse cx="771.824" cy="479.818" rx="2.58817" ry="2.27273" fill="#3521B5" />
    <ellipse cx="827" cy="479.818" rx="2.58832" ry="2.27273" fill="#3521B5" />
    <ellipse cx="882.177" cy="479.818" rx="2.5882" ry="2.27273" fill="#3521B5" />
    <ellipse cx="385.588" cy="552.364" rx="2.58824" ry="2.27273" fill="#3521B5" />
    <ellipse cx="440.765" cy="552.364" rx="2.58826" ry="2.27273" fill="#3521B5" />
    <ellipse cx="495.941" cy="552.364" rx="2.58824" ry="2.27273" fill="#3521B5" />
    <ellipse cx="551.118" cy="552.364" rx="2.58826" ry="2.27273" fill="#3521B5" />
    <ellipse cx="606.294" cy="552.364" rx="2.58826" ry="2.27273" fill="#3521B5" />
    <ellipse cx="661.471" cy="552.364" rx="2.5883" ry="2.27273" fill="#3521B5" />
    <ellipse cx="716.647" cy="552.364" rx="2.58821" ry="2.27273" fill="#3521B5" />
    <ellipse cx="771.824" cy="552.364" rx="2.58817" ry="2.27273" fill="#3521B5" />
    <ellipse cx="827" cy="552.364" rx="2.58832" ry="2.27273" fill="#3521B5" />
    <ellipse cx="882.177" cy="552.364" rx="2.5882" ry="2.27273" fill="#3521B5" />
    <ellipse cx="385.588" cy="624.909" rx="2.58824" ry="2.27273" fill="#3521B5" />
    <ellipse cx="440.765" cy="624.909" rx="2.58826" ry="2.27273" fill="#3521B5" />
    <ellipse cx="495.941" cy="624.909" rx="2.58824" ry="2.27273" fill="#3521B5" />
    <ellipse cx="551.118" cy="624.909" rx="2.58826" ry="2.27273" fill="#3521B5" />
    <ellipse cx="606.294" cy="624.909" rx="2.58826" ry="2.27273" fill="#3521B5" />
    <ellipse cx="661.471" cy="624.909" rx="2.5883" ry="2.27273" fill="#3521B5" />
    <ellipse cx="716.647" cy="624.909" rx="2.58821" ry="2.27273" fill="#3521B5" />
    <ellipse cx="771.824" cy="624.909" rx="2.58817" ry="2.27273" fill="#3521B5" />
    <ellipse cx="827" cy="624.909" rx="2.58832" ry="2.27273" fill="#3521B5" />
    <ellipse cx="882.177" cy="624.909" rx="2.5882" ry="2.27273" fill="#3521B5" />
    <g filter="url(#filter0_d)">
        <circle cx="781.5" cy="626.5" r="57.5" fill="#fff" />
        <g clip-path="url(#clip0)">
            <path
                d="M794.26 590.047h-28.263c-2.208 0-3.997 1.802-3.997 4.024v65.905c0 2.222 1.789 4.024 3.997 4.024h28.263c2.208 0 3.997-1.802 3.997-4.024v-65.905c0-2.222-1.789-4.024-3.997-4.024z"
                fill="#5138EE"
            />
            <path
                d="M793.416 592.194h-26.297c-1.598 0-2.894 1.305-2.894 2.914v63.924c0 1.609 1.296 2.913 2.894 2.913h26.297c1.598 0 2.894-1.304 2.894-2.913v-63.924c0-1.609-1.296-2.914-2.894-2.914z"
                fill="#fff"
            />
            <path
                d="M787.373 590h-14.397c-.966 0-1.75.789-1.75 1.762v.865c0 .973.784 1.762 1.75 1.762h14.397c.967 0 1.75-.789 1.75-1.762v-.865c0-.973-.783-1.762-1.75-1.762z"
                fill="#5138EE"
            />
            <path
                d="M780.268 617.266c5.147 0 9.319-4.202 9.319-9.385s-4.172-9.384-9.319-9.384c-5.147 0-9.32 4.201-9.32 9.384 0 5.183 4.173 9.385 9.32 9.385z"
                fill="#5138EE"
                fill-opacity=".29"
            />
            <path d="M767.981 623.989v-3.922h32.966v3.922h-32.966z" fill="#7B57FF" />
            <path
                d="M784.801 630.712h-16.82v-1.962M784.801 642.197h-16.82v-1.961M767.981 626.79h32.966v1.961M767.981 644.998h32.966v1.961"
                stroke="#3E3E3E"
                stroke-width="1.31"
                stroke-miterlimit="10"
            />
            <path
                d="M800.947 633.513h-32.966v3.921h32.966v-3.921zM800.947 650h-32.966v3.921h32.966V650z"
                fill="#7B57FF"
            />
        </g>
    </g>
    <g filter="url(#filter1_d)">
        <circle cx="181.5" cy="360.5" r="72.5" fill="#fff" />
        <path
            d="M141.418 329.5h78.355c.852 0 1.54.689 1.54 1.536v54.915c0 .847-.688 1.536-1.54 1.536h-78.355c-.851 0-1.54-.689-1.54-1.536v-54.915c0-.847.689-1.536 1.54-1.536z"
            fill="#5138EE"
            stroke="#3E3E3E"
        />
        <path
            d="M141.418 329.5h78.355c.409 0 .801.162 1.09.45.288.288.45.679.45 1.086v47.902h-81.435v-47.902c0-.407.162-.798.451-1.086.289-.288.68-.45 1.089-.45z"
            fill="#5138EE"
            stroke="#3E3E3E"
        />
        <path d="M218.481 332.135h-76.437v43.693h76.437v-43.693z" fill="#fff" />
        <path
            d="M170.668 397.811h0c-.044.336-.016.677.082 1.001.099.323.266.623.489.877.224.255.5.459.809.599.309.14.645.212.985.212l-2.365-2.689zm0 0l1.228-9.324h17.015l1.162 9.344c0 .001 0 .001.001.001.04.334.01.673-.09.994-.1.322-.268.619-.491.871-.224.252-.499.454-.807.593-.308.138-.642.21-.98.21 0 0 0 0 0 0h-14.673l-2.365-2.689z"
            fill="#5138EE"
            stroke="#3E3E3E"
        />
        <path
            opacity=".8"
            d="M180.596 385.897c1.261 0 2.284-1.021 2.284-2.28s-1.023-2.279-2.284-2.279c-1.262 0-2.285 1.02-2.285 2.279s1.023 2.28 2.285 2.28z"
            fill="#fff"
        />
        <path opacity=".8" d="M229 334.747h-47.024v20.802H229v-20.802z" fill="#7B57FF" />
        <path
            d="M134 359.253h44.835M134 362.72h44.835M134 366.235h44.835M134 369.749h44.835"
            stroke="#7B57FF"
            stroke-width="3.52"
            stroke-miterlimit="10"
        />
    </g>
    <g filter="url(#filter2_d)">
        <circle cx="719.5" cy="265.5" r="72.5" fill="#fff" />
        <g clip-path="url(#clip1)">
            <path
                d="M689.193 245.505h68.991c.696 0 1.362.275 1.852.762s.764 1.146.764 1.832v42.916h-74.222v-42.916c0-.686.274-1.345.764-1.832.49-.487 1.156-.762 1.851-.762z"
                fill="#5138EE"
                fill-opacity=".29"
                stroke="#3E3E3E"
                stroke-width="2"
            />
            <path
                d="M673.638 288.116c.937 0 1.697-.755 1.697-1.687 0-.931-.76-1.686-1.697-1.686s-1.696.755-1.696 1.686c0 .932.759 1.687 1.696 1.687zM678.418 288.116c.937 0 1.697-.755 1.697-1.687 0-.931-.76-1.686-1.697-1.686s-1.697.755-1.697 1.686c0 .932.76 1.687 1.697 1.687zM683.199 288.116c.937 0 1.697-.755 1.697-1.687 0-.931-.76-1.686-1.697-1.686s-1.697.755-1.697 1.686c0 .932.76 1.687 1.697 1.687zM687.979 288.116c.937 0 1.697-.755 1.697-1.687 0-.931-.76-1.686-1.697-1.686s-1.697.755-1.697 1.686c0 .932.76 1.687 1.697 1.687zM692.76 288.116c.937 0 1.697-.755 1.697-1.687 0-.931-.76-1.686-1.697-1.686s-1.697.755-1.697 1.686c0 .932.76 1.687 1.697 1.687zM697.54 288.116c.937 0 1.696-.755 1.696-1.687 0-.931-.759-1.686-1.696-1.686-.937 0-1.697.755-1.697 1.686 0 .932.76 1.687 1.697 1.687z"
                fill="#7B57FF"
            />
            <path
                d="M767.817 291.956H679.56v4.927h88.257v-4.927z"
                stroke="#3E3E3E"
                stroke-width="2"
                stroke-miterlimit="10"
            />
            <path d="M712.775 238.346h-39.173v25.221h39.173v-25.221z" fill="#7B57FF" />
            <path opacity=".68" d="M769.882 279.873h-47.196v5.631h47.196v-5.631z" fill="#5138EE" />
            <path
                d="M726.157 277.292h-3.471v-5.63h10.866M769.882 271.662v5.63h-12.725M733.552 271.662h22.752"
                stroke="#3E3E3E"
                stroke-width="2"
                stroke-miterlimit="10"
            />
            <path d="M732.007 291.604H715.37v3.284h16.637v-3.284z" fill="#E2E2E2" />
        </g>
    </g>
    <path
        d="M286.047 854h-7.852l12.68-34.125h6.82L310.445 854h-7.851l-2.227-6.797h-12.094L286.047 854zm4.172-12.75h8.179l-4.101-12.398-4.078 12.398zM320.547 854h-7.102v-36h7.102v36zm12.891 0h-7.102v-36h7.102v36zm31.523-25.359h7.57l-10.125 29.156c-.297.844-.742 1.765-1.336 2.765-.578 1.016-1.414 1.883-2.508 2.602-1.078.719-2.523 1.078-4.335 1.078-.657 0-1.188-.039-1.594-.117-.406-.063-.899-.172-1.477-.328v-5.344c.328.016.672.024 1.032.024 1.312 0 2.273-.211 2.882-.633.625-.406 1.094-1.047 1.407-1.922l.703-1.828-8.86-25.453h7.618l4.5 15.281 4.523-15.281zm9.094 12.445c0-2.469.468-4.672 1.406-6.609.937-1.954 2.305-3.493 4.101-4.618 1.797-1.125 3.977-1.687 6.54-1.687 2.593 0 4.789.562 6.586 1.687 1.812 1.125 3.179 2.664 4.101 4.618.938 1.937 1.406 4.14 1.406 6.609v.492c0 2.453-.468 4.656-1.406 6.61-.922 1.937-2.281 3.468-4.078 4.593-1.797 1.125-3.984 1.688-6.563 1.688-2.578 0-4.773-.563-6.586-1.688-1.796-1.125-3.164-2.656-4.101-4.593-.938-1.954-1.406-4.157-1.406-6.61v-.492zm7.101.492c0 1.328.156 2.539.469 3.633.313 1.094.836 1.961 1.57 2.601.735.641 1.719.961 2.953.961 1.829 0 3.11-.695 3.844-2.085.75-1.407 1.125-3.11 1.125-5.11v-.492c0-1.297-.164-2.492-.492-3.586-.313-1.094-.836-1.969-1.57-2.625-.719-.672-1.703-1.008-2.953-1.008-1.219 0-2.188.336-2.907 1.008-.718.656-1.242 1.531-1.57 2.625-.313 1.094-.469 2.289-.469 3.586v.492zm35.977-12.937h7.078V854h-6.633l-.187-2.602c-.782.969-1.75 1.727-2.907 2.274-1.14.531-2.468.797-3.984.797-2.5 0-4.531-.735-6.094-2.203-1.547-1.469-2.32-3.875-2.32-7.219v-16.406h7.078v16.453c0 1.297.32 2.226.961 2.789.641.562 1.469.844 2.484.844 1.172 0 2.118-.204 2.836-.61.735-.406 1.297-.953 1.688-1.64v-17.836zM436.281 854h-7.078v-25.359h6.656l.235 3.023c.609-1.094 1.383-1.945 2.32-2.555.938-.625 2.024-.937 3.258-.937.359 0 .734.031 1.125.094.406.046.734.117.984.211l-.093 6.82c-.344-.047-.758-.086-1.243-.117-.468-.047-.883-.071-1.242-.071-2.515 0-4.156.821-4.922 2.461V854zm45.563-12.469c0 2.547-.36 4.789-1.078 6.727-.719 1.937-1.813 3.461-3.282 4.57-1.453 1.094-3.281 1.641-5.484 1.641-1.438 0-2.688-.274-3.75-.821-1.062-.562-1.977-1.336-2.742-2.32L465.18 854h-6.352v-36h7.078v12.82c.735-.828 1.594-1.476 2.578-1.945 1-.469 2.157-.703 3.469-.703 2.219 0 4.063.555 5.531 1.664 1.469 1.109 2.563 2.633 3.282 4.57.718 1.938 1.078 4.149 1.078 6.633v.492zm-7.078-.492c0-1.281-.125-2.461-.375-3.539-.25-1.094-.711-1.961-1.383-2.602-.656-.656-1.61-.984-2.86-.984-1.078 0-1.96.219-2.648.656-.688.422-1.219 1.016-1.594 1.782v9.914c.375.796.906 1.414 1.594 1.851.703.422 1.602.633 2.695.633 1.25 0 2.203-.305 2.86-.914.656-.625 1.101-1.477 1.336-2.555.25-1.093.375-2.343.375-3.75v-.492zm10.054.047c0-2.469.469-4.672 1.407-6.609.937-1.954 2.304-3.493 4.101-4.618 1.797-1.125 3.977-1.687 6.539-1.687 2.594 0 4.789.562 6.586 1.687 1.813 1.125 3.18 2.664 4.102 4.618.937 1.937 1.406 4.14 1.406 6.609v.492c0 2.453-.469 4.656-1.406 6.61-.922 1.937-2.282 3.468-4.078 4.593-1.797 1.125-3.985 1.688-6.563 1.688s-4.773-.563-6.586-1.688c-1.797-1.125-3.164-2.656-4.101-4.593-.938-1.954-1.407-4.157-1.407-6.61v-.492zm7.102.492c0 1.328.156 2.539.469 3.633.312 1.094.836 1.961 1.57 2.601.734.641 1.719.961 2.953.961 1.828 0 3.109-.695 3.844-2.085.75-1.407 1.125-3.11 1.125-5.11v-.492c0-1.297-.164-2.492-.492-3.586-.313-1.094-.836-1.969-1.571-2.625-.718-.672-1.703-1.008-2.953-1.008-1.219 0-2.187.336-2.906 1.008-.719.656-1.242 1.531-1.57 2.625-.313 1.094-.469 2.289-.469 3.586v.492zm20.039-.492c0-2.469.469-4.672 1.406-6.609.938-1.954 2.305-3.493 4.102-4.618 1.797-1.125 3.976-1.687 6.539-1.687 2.594 0 4.789.562 6.586 1.687 1.812 1.125 3.179 2.664 4.101 4.618.938 1.937 1.407 4.14 1.407 6.609v.492c0 2.453-.469 4.656-1.407 6.61-.922 1.937-2.281 3.468-4.078 4.593-1.797 1.125-3.984 1.688-6.562 1.688-2.578 0-4.774-.563-6.586-1.688-1.797-1.125-3.164-2.656-4.102-4.593-.937-1.954-1.406-4.157-1.406-6.61v-.492zm7.101.492c0 1.328.157 2.539.469 3.633.313 1.094.836 1.961 1.571 2.601.734.641 1.718.961 2.953.961 1.828 0 3.109-.695 3.843-2.085.75-1.407 1.125-3.11 1.125-5.11v-.492c0-1.297-.164-2.492-.492-3.586-.312-1.094-.836-1.969-1.57-2.625-.719-.672-1.703-1.008-2.953-1.008-1.219 0-2.188.336-2.906 1.008-.719.656-1.243 1.531-1.571 2.625-.312 1.094-.469 2.289-.469 3.586v.492zM547.234 854h-7.078v-36.023h7.078v19.687l1.196-1.523 6.281-7.5h8.508l-9.071 10.523L563.969 854h-8.133l-6.234-9.961-2.368 2.367V854zm25.828 0h-7.078v-25.359h6.657l.234 2.765c.828-1.015 1.844-1.804 3.047-2.367 1.219-.578 2.609-.867 4.172-.867 1.5 0 2.828.305 3.984.914 1.156.609 2.055 1.578 2.695 2.906.813-1.187 1.844-2.117 3.094-2.789 1.266-.687 2.75-1.031 4.453-1.031 2.438 0 4.399.726 5.883 2.18 1.485 1.453 2.227 3.968 2.227 7.546V854h-7.125v-16.125c0-1.625-.321-2.687-.961-3.187-.641-.516-1.524-.774-2.649-.774-.968 0-1.781.234-2.437.703-.656.469-1.164 1.102-1.524 1.899V854h-7.078v-16.055c0-1.625-.328-2.703-.984-3.234-.641-.531-1.531-.797-2.672-.797-.906 0-1.688.195-2.344.586-.656.391-1.187.93-1.594 1.617V854zm48.024-16.898c0-1.141-.281-2.047-.844-2.719-.562-.672-1.461-1.008-2.695-1.008-1.078 0-1.914.258-2.508.773-.594.516-.891 1.235-.891 2.157h-7.078c0-1.5.446-2.86 1.336-4.078.891-1.235 2.149-2.219 3.774-2.954 1.625-.734 3.539-1.101 5.742-1.101 1.969 0 3.726.336 5.273 1.008 1.547.656 2.766 1.648 3.657 2.976.89 1.328 1.336 2.992 1.336 4.992v10.594c0 1.5.085 2.688.257 3.563.188.875.446 1.64.774 2.297V854h-7.125c-.282-.594-.508-1.336-.68-2.227-.656.75-1.5 1.391-2.531 1.922-1.016.516-2.274.774-3.774.774-1.609 0-3.07-.321-4.382-.961-1.297-.656-2.329-1.555-3.094-2.696-.766-1.156-1.149-2.476-1.149-3.96 0-2.657.985-4.711 2.954-6.164 1.968-1.469 4.898-2.204 8.789-2.204h2.859v-1.382zm-4.406 12c1.093 0 2.015-.235 2.765-.704.766-.484 1.313-1.015 1.641-1.593v-4.243h-2.648c-1.719 0-2.961.376-3.727 1.126-.766.734-1.149 1.624-1.149 2.671 0 .797.282 1.453.844 1.969.563.516 1.321.774 2.274.774zM640.328 854h-7.078v-25.359h6.656l.235 3.023c.609-1.094 1.382-1.945 2.32-2.555.937-.625 2.023-.937 3.258-.937.359 0 .734.031 1.125.094.406.046.734.117.984.211l-.094 6.82c-.343-.047-.757-.086-1.242-.117-.469-.047-.883-.071-1.242-.071-2.516 0-4.156.821-4.922 2.461V854zM658 854h-7.078v-36.023H658v19.687l1.195-1.523 6.282-7.5h8.507l-9.07 10.523 9.82 14.836h-8.132l-6.235-9.961-2.367 2.367V854zm32.344-7.078c0-.688-.336-1.258-1.008-1.711-.656-.469-2.024-.922-4.102-1.359-1.718-.36-3.257-.86-4.617-1.5-1.344-.657-2.414-1.493-3.211-2.508-.781-1.016-1.172-2.258-1.172-3.727 0-1.422.407-2.734 1.219-3.937.813-1.203 1.977-2.172 3.492-2.907 1.532-.734 3.36-1.101 5.485-1.101 3.328 0 5.945.773 7.851 2.32 1.922 1.531 2.883 3.492 2.883 5.883h-7.078c0-.953-.297-1.727-.891-2.32-.578-.61-1.507-.914-2.789-.914-1.047 0-1.875.25-2.484.75-.61.5-.914 1.125-.914 1.875 0 .718.336 1.304 1.008 1.757.687.438 1.882.813 3.586 1.125 1.796.36 3.421.836 4.875 1.43 1.453.578 2.609 1.399 3.468 2.461.86 1.047 1.289 2.422 1.289 4.125 0 1.5-.445 2.836-1.336 4.008-.875 1.172-2.125 2.101-3.75 2.789-1.609.672-3.507 1.008-5.695 1.008-2.391 0-4.406-.43-6.047-1.289-1.64-.86-2.883-1.946-3.726-3.258-.844-1.328-1.266-2.68-1.266-4.055h6.703c.063 1.266.524 2.188 1.383 2.766.875.562 1.914.844 3.117.844 1.219 0 2.141-.235 2.766-.704.64-.468.961-1.085.961-1.851zm-336.774 30.18c0-1.047.36-1.914 1.078-2.602.719-.688 1.68-1.031 2.883-1.031s2.157.343 2.86 1.031c.718.688 1.078 1.555 1.078 2.602 0 1.062-.36 1.937-1.078 2.625-.703.671-1.657 1.007-2.86 1.007-1.203 0-2.164-.336-2.883-1.007-.718-.688-1.078-1.563-1.078-2.625zM361.094 909h-7.102v-25.359h7.102V909zm12.351 0h-7.078v-25.359h6.656l.235 2.882c1.797-2.234 4.211-3.351 7.242-3.351 1.594 0 2.992.312 4.195.937 1.203.61 2.141 1.625 2.813 3.047.672 1.422 1.008 3.344 1.008 5.766V909h-7.102v-16.125c0-1.563-.336-2.609-1.008-3.141-.672-.546-1.64-.82-2.906-.82-.938 0-1.742.195-2.414.586-.672.391-1.219.93-1.641 1.617V909zm30.938-12.914c0-2.469.469-4.672 1.406-6.609.938-1.954 2.305-3.493 4.102-4.618 1.797-1.125 3.976-1.687 6.539-1.687 2.593 0 4.789.562 6.586 1.687 1.812 1.125 3.179 2.664 4.101 4.618.938 1.937 1.406 4.14 1.406 6.609v.492c0 2.453-.468 4.656-1.406 6.61-.922 1.937-2.281 3.468-4.078 4.593-1.797 1.125-3.984 1.688-6.562 1.688-2.579 0-4.774-.563-6.586-1.688-1.797-1.125-3.164-2.656-4.102-4.593-.937-1.954-1.406-4.157-1.406-6.61v-.492zm7.101.492c0 1.328.157 2.539.469 3.633.313 1.094.836 1.961 1.57 2.601.735.641 1.719.961 2.954.961 1.828 0 3.109-.695 3.843-2.085.75-1.407 1.125-3.11 1.125-5.11v-.492c0-1.297-.164-2.492-.492-3.586-.312-1.094-.836-1.969-1.57-2.625-.719-.672-1.703-1.008-2.953-1.008-1.219 0-2.188.336-2.907 1.008-.718.656-1.242 1.531-1.57 2.625-.312 1.094-.469 2.289-.469 3.586v.492zM439.492 909h-7.078v-25.359h6.656l.235 2.882c1.797-2.234 4.211-3.351 7.242-3.351 1.594 0 2.992.312 4.195.937 1.203.61 2.141 1.625 2.813 3.047.672 1.422 1.007 3.344 1.007 5.766V909h-7.101v-16.125c0-1.563-.336-2.609-1.008-3.141-.672-.546-1.641-.82-2.906-.82-.938 0-1.742.195-2.414.586-.672.391-1.219.93-1.641 1.617V909zm31.875.469c-2.672 0-4.961-.555-6.867-1.664-1.891-1.11-3.344-2.594-4.359-4.453-1-1.86-1.5-3.914-1.5-6.164v-.915c0-2.531.476-4.781 1.429-6.75.969-1.968 2.344-3.515 4.125-4.64 1.782-1.141 3.907-1.711 6.375-1.711 3.672 0 6.469 1.14 8.391 3.422 1.922 2.265 2.883 5.281 2.883 9.047v3h-16.008c.25 1.547.891 2.789 1.922 3.726 1.047.922 2.398 1.383 4.054 1.383 1.204 0 2.321-.219 3.352-.656 1.047-.453 1.945-1.156 2.695-2.11l3.422 3.914c-.797 1.141-2.031 2.188-3.703 3.141-1.672.953-3.742 1.43-6.211 1.43zm-.844-20.602c-1.39 0-2.453.469-3.187 1.406-.734.922-1.219 2.125-1.453 3.61h9v-.563c-.016-1.297-.375-2.359-1.078-3.187-.688-.844-1.782-1.266-3.282-1.266zm34.055 29.883H497.5v-35.109h6.562l.258 2.414c.75-.907 1.641-1.61 2.672-2.11 1.047-.515 2.258-.773 3.633-.773 2.141 0 3.945.539 5.414 1.617 1.469 1.063 2.578 2.563 3.328 4.5.766 1.922 1.149 4.172 1.149 6.75v.492c0 2.453-.383 4.657-1.149 6.61-.75 1.953-1.859 3.5-3.328 4.64-1.453 1.125-3.25 1.688-5.391 1.688-1.296 0-2.445-.235-3.445-.703-1-.469-1.875-1.118-2.625-1.946v11.93zm8.86-22.711c0-2.047-.36-3.742-1.079-5.086-.703-1.359-1.906-2.039-3.609-2.039-2.016 0-3.406.766-4.172 2.297v10.148c.375.75.899 1.344 1.57 1.782.688.421 1.571.632 2.649.632 1.141 0 2.047-.328 2.719-.984.687-.656 1.179-1.531 1.476-2.625.297-1.109.446-2.32.446-3.633v-.492zM532 909h-7.102v-36H532v36zm19.008-16.898c0-1.141-.281-2.047-.844-2.719-.562-.672-1.461-1.008-2.695-1.008-1.078 0-1.914.258-2.508.773-.594.516-.891 1.235-.891 2.157h-7.078c0-1.5.446-2.86 1.336-4.078.891-1.235 2.149-2.219 3.774-2.954 1.625-.734 3.539-1.101 5.742-1.101 1.968 0 3.726.336 5.273 1.008 1.547.656 2.766 1.648 3.656 2.976.891 1.328 1.336 2.992 1.336 4.992v10.594c0 1.5.086 2.688.258 3.563.188.875.445 1.64.774 2.297V909h-7.125c-.282-.594-.508-1.336-.68-2.227-.656.75-1.5 1.391-2.531 1.922-1.016.516-2.274.774-3.774.774-1.609 0-3.07-.321-4.383-.961-1.296-.656-2.328-1.555-3.093-2.696-.766-1.156-1.149-2.476-1.149-3.96 0-2.657.985-4.711 2.953-6.164 1.969-1.469 4.899-2.204 8.789-2.204h2.86v-1.382zm-4.406 12c1.093 0 2.015-.235 2.765-.704.766-.484 1.313-1.015 1.641-1.593v-4.243h-2.649c-1.718 0-2.961.376-3.726 1.126-.766.734-1.149 1.624-1.149 2.671 0 .797.282 1.453.844 1.969.563.516 1.32.774 2.274.774zm27.164-.329c1.203 0 2.172-.328 2.906-.984.75-.672 1.133-1.562 1.148-2.672h6.657c-.016 1.828-.493 3.445-1.43 4.852-.938 1.406-2.203 2.508-3.797 3.304-1.594.797-3.383 1.196-5.367 1.196-2.625 0-4.813-.563-6.563-1.688-1.734-1.14-3.039-2.679-3.914-4.617-.859-1.953-1.289-4.125-1.289-6.516v-.632c0-2.407.43-4.578 1.289-6.516.875-1.938 2.18-3.477 3.914-4.617 1.75-1.141 3.93-1.711 6.539-1.711 2.094 0 3.93.406 5.508 1.219 1.594.797 2.836 1.945 3.727 3.445.906 1.484 1.367 3.266 1.383 5.344h-6.657c-.015-1.188-.367-2.203-1.054-3.047-.688-.844-1.704-1.266-3.047-1.266-1.25 0-2.203.336-2.86 1.008-.64.672-1.078 1.555-1.312 2.648-.235 1.079-.352 2.243-.352 3.493v.632c0 1.266.11 2.446.328 3.54.235 1.078.68 1.945 1.336 2.601.657.656 1.625.984 2.907.984zm26.32 5.696c-2.672 0-4.961-.555-6.867-1.664-1.891-1.11-3.344-2.594-4.36-4.453-1-1.86-1.5-3.914-1.5-6.164v-.915c0-2.531.477-4.781 1.43-6.75.969-1.968 2.344-3.515 4.125-4.64 1.781-1.141 3.906-1.711 6.375-1.711 3.672 0 6.469 1.14 8.391 3.422 1.922 2.265 2.882 5.281 2.882 9.047v3h-16.007c.25 1.547.89 2.789 1.922 3.726 1.046.922 2.398 1.383 4.054 1.383 1.203 0 2.321-.219 3.352-.656 1.047-.453 1.945-1.156 2.695-2.11l3.422 3.914c-.797 1.141-2.031 2.188-3.703 3.141-1.672.953-3.742 1.43-6.211 1.43zm-.844-20.602c-1.39 0-2.453.469-3.187 1.406-.735.922-1.219 2.125-1.453 3.61h9v-.563c-.016-1.297-.375-2.359-1.079-3.187-.687-.844-1.781-1.266-3.281-1.266zm15.399 16.641c0-1.063.359-1.953 1.078-2.672.734-.719 1.703-1.078 2.906-1.078s2.164.359 2.883 1.078c.719.719 1.078 1.609 1.078 2.672 0 1.062-.359 1.953-1.078 2.672-.719.718-1.68 1.078-2.883 1.078s-2.172-.36-2.906-1.078c-.719-.719-1.078-1.61-1.078-2.672z"
        fill="#fff"
    />
    <circle cx="465" cy="421" r="139.5" stroke="#3521B5" stroke-width="5" />
    <circle cx="461" cy="423" r="75.5" stroke="#3521B5" stroke-width="5" />
    <path
        d="M890 805h-64v61h-69v73h-67v68h-70v73h340V738h-70v67zM70.4994 469l-.4857-.119-.0006.003.4863.116zm41.9996 111l-.295.404.295-.404zM321 571.5l-5.725-.744 2.218 5.33L321 571.5zM97.9995 432l-.2773-.416-.0238.016-.0219.018.323.382zm34.9995-17l-.174-.469c-.001 0-.001.001-.001.001-.001 0-.003.001-.004.001-.004.002-.009.003-.016.006-.013.005-.034.013-.06.023-.054.02-.133.05-.237.089-.207.079-.513.195-.906.347-.785.304-1.921.749-3.322 1.316l.375.927c1.396-.565 2.526-1.008 3.308-1.31.391-.151.694-.267.9-.345.102-.039.181-.068.233-.088.026-.01.046-.017.059-.022.007-.003.012-.005.015-.006.002 0 .003-.001.004-.001h.001v-.001l-.175-.468zm-13.701 5.14c-2.789 1.249-5.802 2.66-8.83 4.182l.45.893c3.011-1.514 6.011-2.918 8.789-4.162l-.409-.913zm-17.425 8.845c-1.44.851-2.8324 1.72-4.1508 2.599l.5547.832c1.3012-.868 2.6781-1.727 4.1061-2.571l-.51-.86zm-4.1965 2.633c-1.2682 1.073-2.8649 2.205-4.6919 3.542l.5907.807c1.8039-1.321 3.4439-2.483 4.7472-3.585l-.646-.764zm-13.793 11.223c-2.5042 2.567-5.0008 5.652-7.2642 9.46l.8596.511c2.2186-3.732 4.665-6.756 7.1204-9.273l-.7158-.698zM71.677 463.147c-.6094 1.8-1.1671 3.708-1.6633 5.734l.9713.238c.4896-1.999 1.0392-3.88 1.6391-5.651l-.9471-.321zm-1.6639 5.737c-.3839 1.605-.7413 3.156-1.0726 4.658l.9766.216c.3299-1.496.6859-3.042 1.0685-4.642l-.9725-.232zm-2.905 14.049c-.5567 3.367-.9492 6.502-1.185 9.499l.9969.079c.2333-2.966.622-6.071 1.1747-9.415l-.9866-.163zm-1.4021 19.088c.1153 3.177.4198 6.312.9012 9.545l.9891-.147c-.4765-3.2-.7771-6.298-.8909-9.434l-.9994.036zm2.6963 18.945c.3409 1.507.7119 3.055 1.112 4.655l.9701-.242c-.3985-1.594-.7677-3.135-1.1068-4.633l-.9753.22zm1.112 4.655c.3623 1.45.7588 2.876 1.1923 4.282l.9556-.294c-.428-1.389-.8196-2.798-1.1778-4.23l-.9701.242zm4.3095 12.607c1.1933 2.675 2.5593 5.293 4.1218 7.876l.8557-.517c-1.5412-2.548-2.8879-5.129-4.0642-7.766l-.9133.407zm9.1555 15.203c1.7407 2.257 3.6539 4.504 5.7561 6.758l.7314-.682c-2.0826-2.233-3.9754-4.456-5.6957-6.686l-.7918.61zm12.0481 13.008c2.0756 1.923 4.2963 3.862 6.6716 5.827l.638-.771c-2.3629-1.954-4.5694-3.881-6.6301-5.789l-.6795.733zm13.6176 11.317c1.156.876 2.342 1.758 3.559 2.648l.59-.808c-1.213-.886-2.394-1.765-3.545-2.637l-.604.797zm3.559 2.648c1.399 1.022 2.85 2.006 4.348 2.953l.534-.845c-1.48-.936-2.912-1.908-4.292-2.916l-.59.808zm13.539 8.049c3.091 1.507 6.311 2.894 9.628 4.17l.359-.933c-3.293-1.267-6.487-2.643-9.549-4.135l-.438.898zm19.546 7.582c3.32 1.018 6.699 1.942 10.11 2.776l.237-.972c-3.393-.83-6.754-1.748-10.054-2.76l-.293.956zm20.35 5.005c3.451.664 6.904 1.244 10.331 1.747l.145-.989c-3.413-.501-6.852-1.079-10.287-1.74l-.189.982zm20.726 3.053c3.553.373 7.044.666 10.438.885l.064-.998c-3.381-.218-6.858-.51-10.397-.881l-.105.994zm20.902 1.346c1.789.041 3.536.061 5.233.061v-1c-1.689 0-3.428-.02-5.21-.061l-.023 1zm5.233.061c1.473 0 3.064-.082 4.756-.238l-.092-.996c-1.668.154-3.228.234-4.664.234v1zm14.21-1.633c2.947-.564 6.064-1.258 9.301-2.056l-.24-.971c-3.223.794-6.322 1.485-9.249 2.045l.188.982zm18.505-4.503c2.994-.848 6.046-1.757 9.122-2.71l-.296-.956c-3.07.952-6.114 1.859-9.098 2.704l.272.962zm18.181-5.616c3.019-.999 6.031-2.024 9.005-3.059l-.328-.945c-2.97 1.034-5.978 2.058-8.992 3.055l.315.949zm17.966-6.244c3.063-1.111 6.047-2.214 8.914-3.291l-.351-.936c-2.864 1.075-5.845 2.177-8.904 3.287l.341.94zm17.805-6.682c3.22-1.247 6.192-2.418 8.843-3.475l-.371-.929c-2.648 1.056-5.617 2.226-8.833 3.471l.361.933zm17.682-7.054c.063-.026.125-.051.187-.077l-.381-.924c-.061.025-.123.051-.186.076l.38.925zM70.4994 469l-.9714-.238-.0012.005.9726.233zm41.9996 111l-.59.807.59-.807zM321 571.5l-11.451-1.49 4.436 10.662L321 571.5zM97.9995 432l-.5547-.832-.0476.032-.0436.037.6459.763zm34.9995-17l-.348-.937h-.001-.001c-.001.001-.002.001-.004.002-.004.001-.009.003-.016.006-.014.005-.034.013-.061.023-.054.02-.134.05-.238.089-.208.079-.515.196-.909.349-.788.304-1.926.751-3.329 1.319l.75 1.854c1.393-.564 2.521-1.007 3.3-1.308.39-.151.692-.266.897-.343.102-.039.18-.068.232-.088.026-.01.045-.017.058-.022.007-.002.012-.004.015-.005.001-.001.002-.001.003-.002h.001l-.349-.937zm-13.905 4.684c-2.794 1.251-5.815 2.665-8.85 4.191l.898 1.787c3.003-1.51 5.996-2.911 8.769-4.153l-.817-1.825zm-17.475 8.87c-1.447.856-2.8472 1.729-4.1742 2.614l1.1094 1.664c1.2926-.862 2.6618-1.716 4.0828-2.556l-1.018-1.722zm-4.2654 2.683c-1.2507 1.058-2.8257 2.174-4.6644 3.52l1.1815 1.614c1.7923-1.313 3.454-2.49 4.7748-3.608l-1.2919-1.526zm-13.828 11.255c-2.5286 2.592-5.0504 5.708-7.3361 9.553l1.7192 1.022c2.1963-3.694 4.6176-6.687 7.0485-9.178l-1.4316-1.397zm-12.3222 20.495c-.6141 1.813-1.1758 3.735-1.6753 5.775l1.9425.476c.4863-1.985 1.0319-3.852 1.6271-5.609l-1.8943-.642zm-1.6766 5.78c-.3845 1.608-.7425 3.162-1.0745 4.668l1.953.43c.3292-1.493.6846-3.035 1.0666-4.632l-1.9451-.466zm-2.912 14.085c-.5586 3.379-.9531 6.527-1.1902 9.541l1.9939.157c.232-2.949.6188-6.041 1.1695-9.372l-1.9732-.326zm-1.4085 19.187c.1161 3.197.4225 6.351.9063 9.601l1.9782-.294c-.474-3.184-.7727-6.264-.8858-9.38l-1.9987.073zm2.7083 19.038c.3419 1.511.7138 3.062 1.1146 4.665l1.9403-.485c-.3978-1.591-.7661-3.128-1.1042-4.622l-1.9507.442zm1.1146 4.665c.3644 1.458.7633 2.893 1.1996 4.309l1.9112-.589c-.4252-1.38-.8144-2.78-1.1705-4.205l-1.9403.485zm4.338 12.69c1.2018 2.694 2.5773 5.33 4.1506 7.931l1.7113-1.035c-1.5304-2.53-2.8675-5.093-4.0354-7.711l-1.8265.815zm9.2162 15.305c1.7509 2.27 3.6743 4.528 5.7864 6.793l1.4626-1.364c-2.0727-2.223-3.9553-4.434-5.6654-6.651l-1.5836 1.222zm12.1043 13.069c2.083 1.93 4.3107 3.874 6.6923 5.845l1.275-1.541c-2.356-1.949-4.5551-3.869-6.6083-5.771l-1.359 1.467zm13.6553 11.349c1.158.877 2.346 1.761 3.566 2.652l1.18-1.614c-1.211-.885-2.39-1.762-3.538-2.632l-1.208 1.594zm3.566 2.652c1.408 1.029 2.868 2.02 4.376 2.973l1.069-1.691c-1.472-.93-2.895-1.895-4.265-2.896l-1.18 1.614zm13.615 8.096c3.105 1.513 6.339 2.906 9.668 4.187l.718-1.867c-3.281-1.262-6.462-2.632-9.51-4.118l-.876 1.798zm19.618 7.61c3.33 1.021 6.719 1.947 10.138 2.783l.475-1.942c-3.384-.828-6.736-1.744-10.026-2.753l-.587 1.912zm20.402 5.018c3.459.666 6.919 1.247 10.354 1.751l.29-1.979c-3.407-.5-6.838-1.076-10.266-1.736l-.378 1.964zm20.769 3.059c3.56.374 7.057.667 10.457.887l.129-1.996c-3.374-.218-6.845-.509-10.377-.88l-.209 1.989zm20.943 1.349c1.793.041 3.543.061 5.244.061v-2c-1.685 0-3.42-.02-5.199-.06l-.045 1.999zm5.244.061c1.491 0 3.097-.083 4.801-.241l-.183-1.991c-1.656.153-3.2.232-4.618.232v2zm14.304-1.642c2.957-.566 6.083-1.262 9.326-2.062l-.478-1.942c-3.217.793-6.307 1.481-9.224 2.04l.376 1.964zm18.547-4.513c2.998-.849 6.054-1.759 9.134-2.714l-.592-1.91c-3.066.95-6.106 1.856-9.087 2.7l.545 1.924zm18.202-5.622c3.021-1 6.036-2.026 9.013-3.062l-.658-1.889c-2.968 1.033-5.972 2.056-8.984 3.052l.629 1.899zm17.979-6.249c3.065-1.112 6.051-2.216 8.92-3.293l-.703-1.872c-2.863 1.074-5.841 2.176-8.899 3.285l.682 1.88zm17.816-6.686c3.221-1.248 6.195-2.419 8.847-3.477l-.741-1.858c-2.647 1.056-5.614 2.225-8.828 3.47l.722 1.865zM427 191.5l-.242-.438.242.438zM414 329l.095-5.773-5.047 2.805L414 329zm247-108l.369-.338c-.001 0-.001 0-.001-.001-.001 0-.002-.001-.003-.003l-.011-.011c-.009-.011-.023-.026-.042-.046-.037-.04-.092-.1-.165-.179-.147-.157-.364-.388-.65-.689-.572-.602-1.418-1.479-2.515-2.584l-.71.705c1.092 1.099 1.933 1.971 2.5 2.568.284.298.499.528.643.682.072.078.126.136.163.175.018.02.031.035.04.044.005.005.008.009.01.011.001.001.002.002.002.003h.001v.001L661 221zm-10.02-10.612c-2.136-1.984-4.564-4.173-7.249-6.492l-.653.756c2.675 2.311 5.094 4.493 7.221 6.469l.681-.733zm-14.727-12.72c-2.437-1.955-5.014-3.951-7.715-5.951l-.595.804c2.69 1.991 5.257 3.979 7.684 5.927l.626-.78zm-15.667-11.586c-2.649-1.792-5.385-3.559-8.197-5.273l-.521.854c2.798 1.705 5.521 3.463 8.157 5.247l.561-.828zm-16.652-10.125c-2.852-1.534-5.764-2.994-8.724-4.354l-.418.909c2.939 1.351 5.833 2.801 8.669 4.326l.473-.881zm-17.728-8.109c-3.06-1.144-6.157-2.161-9.28-3.028l-.267.963c3.092.859 6.162 1.867 9.197 3.001l.35-.936zm-18.81-5.167c-1.611-.273-3.225-.5-4.841-.678l-.11.994c1.597.176 3.192.4 4.784.67l.167-.986zm-4.841-.678c-1.729-.19-3.414-.38-5.061-.567l-.113.994c1.648.187 3.334.377 5.064.567l.11-.994zm-15.175-1.722c-3.522-.397-6.875-.758-10.109-1.061l-.093.996c3.225.302 6.571.662 10.09 1.058l.112-.993zm-20.271-1.809c-3.459-.168-6.835-.226-10.201-.14l.026 1c3.337-.086 6.688-.028 10.127.139l.048-.999zm-20.384.597c-3.274.397-6.605.958-10.06 1.716l.215.977c3.424-.751 6.724-1.307 9.965-1.7l-.12-.993zm-19.923 4.319c-3.079.942-6.281 2.036-9.643 3.299l.351.936c3.345-1.256 6.528-2.344 9.584-3.279l-.292-.956zm-19.094 7.114c-2.961 1.271-6.047 2.662-9.277 4.181l.425.905c3.221-1.515 6.297-2.901 9.246-4.167l-.394-.919zm-18.431 8.636c-2.909 1.459-5.929 3.012-9.07 4.664l.465.885c3.137-1.649 6.151-3.199 9.053-4.655l-.448-.894zm-18.019 9.456c-1.474.803-2.974 1.625-4.5 2.468l.484.876c1.524-.842 3.022-1.664 4.494-2.466l-.478-.878zm-4.5 2.468c-1.467.811-2.88 1.646-4.24 2.504l.533.846c1.344-.848 2.74-1.673 4.191-2.474l-.484-.876zm-12.1 8.184c-2.602 2.155-4.95 4.416-7.064 6.766l.744.669c2.08-2.314 4.393-4.54 6.958-6.665l-.638-.77zm-12.987 14.486c-1.804 2.78-3.346 5.648-4.65 8.583l.914.406c1.283-2.888 2.8-5.71 4.575-8.445l-.839-.544zm-7.929 17.762c-.871 3.142-1.516 6.33-1.965 9.544l.99.138c.443-3.173 1.081-6.319 1.939-9.414l-.964-.268zm-2.749 19.25c-.083 3.249.005 6.501.235 9.731l.997-.071c-.227-3.201-.314-6.42-.232-9.634l-1-.026zm1.331 19.393c.499 3.237 1.116 6.428 1.824 9.55l.975-.221c-.703-3.101-1.316-6.269-1.811-9.481l-.988.152zm4.269 18.963c.936 3.206 1.942 6.301 2.98 9.252l.944-.332c-1.033-2.935-2.033-6.013-2.964-9.2l-.96.28zm6.434 18.335c1.332 3.261 2.65 6.243 3.88 8.885l.906-.422c-1.223-2.629-2.534-5.597-3.86-8.841l-.926.378zm8.188 17.57c.054.1.106.199.158.297l.883-.471c-.052-.096-.104-.195-.157-.295l-.884.469zM427 191.5l-.484-.875.484.875zM414 329l.205-11.545-10.101 5.595L414 329zm247-108l.738-.675s-.001 0-.001-.001h-.001c0-.001-.001-.002-.002-.004l-.012-.012c-.009-.01-.024-.026-.043-.046-.037-.041-.093-.101-.167-.181-.147-.158-.366-.391-.653-.693-.574-.604-1.423-1.483-2.522-2.591l-1.42 1.409c1.089 1.097 1.928 1.966 2.493 2.561.282.297.496.525.639.678.072.077.126.135.161.174.018.019.031.033.04.043l.01.01c.001.001.001.002.002.003L661 221zm-9.68-10.978c-2.14-1.988-4.572-4.181-7.262-6.505l-1.307 1.514c2.67 2.307 5.084 4.484 7.208 6.456l1.361-1.465zm-14.754-12.744c-2.442-1.959-5.024-3.959-7.73-5.962l-1.19 1.607c2.683 1.987 5.245 3.971 7.669 5.915l1.251-1.56zm-15.7-11.61c-2.654-1.796-5.398-3.567-8.217-5.286l-1.041 1.708c2.79 1.701 5.507 3.455 8.137 5.234l1.121-1.656zm-16.695-10.151c-2.861-1.539-5.782-3.003-8.753-4.368l-.835 1.817c2.929 1.346 5.814 2.792 8.641 4.312l.947-1.761zm-17.79-8.138c-3.073-1.148-6.183-2.17-9.321-3.041l-.535 1.927c3.077.854 6.133 1.858 9.156 2.988l.7-1.874zm-18.901-5.191c-1.62-.275-3.244-.503-4.871-.682l-.218 1.988c1.586.174 3.171.397 4.754.666l.335-1.972zm-4.871-.682c-1.727-.19-3.412-.38-5.058-.567l-.226 1.988c1.648.187 3.335.377 5.066.567l.218-1.988zm-15.173-1.722c-3.523-.397-6.88-.758-10.118-1.062l-.186 1.992c3.219.301 6.562.661 10.08 1.057l.224-1.987zm-20.302-1.811c-3.47-.169-6.858-.228-10.239-.14l.052 1.999c3.323-.086 6.661-.028 10.089.139l.098-1.998zm-20.469.6c-3.29.398-6.637.963-10.107 1.724l.429 1.953c3.408-.747 6.693-1.301 9.918-1.692l-.24-1.985zm-20.009 4.337c-3.09.945-6.302 2.042-9.673 3.309l.703 1.872c3.336-1.253 6.509-2.337 9.555-3.269l-.585-1.912zm-19.146 7.132c-2.966 1.274-6.057 2.668-9.292 4.189l.851 1.81c3.216-1.513 6.287-2.897 9.231-4.161l-.79-1.838zm-18.458 8.649c-2.911 1.461-5.934 3.015-9.078 4.668l.931 1.77c3.134-1.647 6.145-3.196 9.044-4.65l-.897-1.788zm-18.033 9.464c-1.476.803-2.976 1.626-4.503 2.47l.968 1.75c1.523-.841 3.02-1.662 4.491-2.464l-.956-1.756zm-4.503 2.47c-1.475.815-2.896 1.655-4.265 2.519l1.067 1.691c1.336-.843 2.723-1.663 4.166-2.46l-.968-1.75zm-12.177 8.236c-2.62 2.17-4.986 4.448-7.117 6.817l1.488 1.337c2.063-2.295 4.359-4.505 6.905-6.614l-1.276-1.54zm-13.087 14.599c-1.82 2.802-3.374 5.694-4.688 8.652l1.828.812c1.273-2.865 2.777-5.664 4.537-8.376l-1.677-1.088zm-7.992 17.901c-.877 3.164-1.527 6.374-1.978 9.607l1.98.277c.441-3.153 1.074-6.277 1.925-9.35l-1.927-.534zm-2.767 19.371c-.083 3.266.005 6.533.236 9.778l1.995-.142c-.227-3.186-.313-6.389-.232-9.586l-1.999-.05zm1.337 19.481c.5 3.249 1.12 6.452 1.831 9.584l1.95-.442c-.701-3.09-1.312-6.247-1.804-9.447l-1.977.305zm4.283 19.027c.939 3.216 1.948 6.319 2.989 9.278l1.886-.664c-1.029-2.928-2.027-5.996-2.955-9.175l-1.92.561zm6.451 18.385c1.336 3.268 2.657 6.257 3.889 8.905l1.814-.843c-1.221-2.623-2.529-5.583-3.851-8.819l-1.852.757zM503.5 738l.159-.474-.159.474zm-55-46l-.289 5.766 5.138-2.633L448.5 692zM660 747.5l.083.493-.083-.493zm82.5-78l-.485-.123v.001s0 .002-.001.003c-.001.003-.002.008-.004.014-.003.013-.008.033-.015.059-.014.052-.035.131-.063.235-.057.208-.144.518-.263.921-.237.806-.602 1.985-1.112 3.472l.946.324c.515-1.502.884-2.695 1.126-3.513.12-.41.209-.726.268-.94.029-.107.051-.189.065-.244.007-.028.013-.049.017-.063.001-.008.003-.013.004-.017 0-.002.001-.003.001-.004v-.001-.001l-.484-.123zm-5.57 13.828c-1.201 2.73-2.642 5.746-4.351 8.94l.882.471c1.721-3.217 3.174-6.257 4.384-9.009l-.915-.402zm-9.385 17.529c-1.714 2.677-3.607 5.404-5.69 8.131l.795.607c2.101-2.751 4.009-5.501 5.737-8.198l-.842-.54zm-12.063 15.753c-2.184 2.386-4.529 4.732-7.044 7.003l.67.743c2.54-2.294 4.908-4.663 7.112-7.071l-.738-.675zm-14.735 13.28c-2.611 1.918-5.372 3.744-8.291 5.449l.505.863c2.95-1.723 5.74-3.568 8.378-5.506l-.592-.806zm-17.107 9.988c-2.944 1.323-6.025 2.523-9.248 3.579l.311.951c3.257-1.068 6.371-2.281 9.347-3.617l-.41-.913zm-18.832 6.185c-1.599.35-3.229.665-4.891.944l.166.986c1.677-.282 3.323-.6 4.939-.953l-.214-.977zm-4.891.944c-1.64.275-3.27.54-4.891.793l.155.988c1.624-.254 3.258-.519 4.902-.795l-.166-.986zm-14.684 2.212c-3.313.44-6.583.835-9.812 1.184l.108.994c3.237-.35 6.515-.745 9.836-1.187l-.132-.991zm-19.658 2.123c-3.335.275-6.624.501-9.87.68l.055.998c3.255-.179 6.553-.406 9.897-.681l-.082-.997zm-19.751 1.086c-3.342.089-6.637.128-9.886.118l-.002 1c3.258.01 6.563-.029 9.915-.119l-.027-.999zm-19.77-.064c-3.34-.113-6.63-.278-9.874-.493l-.066.997c3.254.216 6.556.382 9.906.496l.034-1zm-19.726-1.31c-3.323-.332-6.595-.716-9.818-1.149l-.134.991c3.235.435 6.519.82 9.853 1.153l.099-.995zm-19.59-2.637c-3.287-.559-6.523-1.17-9.712-1.829l-.202.98c3.2.661 6.447 1.274 9.746 1.835l.168-.986zm-19.354-4c-3.237-.789-6.423-1.627-9.564-2.51l-.27.962c3.151.887 6.349 1.728 9.597 2.52l.237-.972zm-19.03-5.351c-1.577-.502-3.141-1.016-4.695-1.54l-.319.948c1.558.526 3.128 1.041 4.71 1.545l.304-.953zm-4.695-1.54c-1.472-.496-2.909-1.016-4.311-1.556l-.359.934c1.415.544 2.865 1.069 4.351 1.57l.319-.948zm-12.703-5.214c-2.84-1.39-5.51-2.861-8.018-4.385l-.519.854c2.533 1.54 5.229 3.025 8.097 4.429l.44-.898zm-15.6-9.497c-2.568-1.912-4.918-3.861-7.063-5.804l-.671.741c2.168 1.964 4.542 3.933 7.136 5.865l.598-.802zm-13.54-12.272c-2.258-2.487-4.18-4.878-5.796-7.071l-.805.593c1.634 2.219 3.578 4.636 5.86 7.15l.741-.672zm-10.782-14.703c-.016-.028-.031-.055-.047-.082l-.87.493c.016.028.032.056.048.083l.869-.494zM503.5 738l.319-.947-.319.947zm-55-46l-.567 11.533 10.271-5.275L448.5 692zM660 747.5l.165.986-.165-.986zm82.5-78l-.969-.246h-.001v.003c-.001.003-.002.007-.004.013-.003.012-.008.031-.014.057-.014.05-.034.128-.062.23-.056.205-.142.512-.26.912-.236.799-.599 1.971-1.106 3.451l1.892.648c.517-1.509.889-2.709 1.132-3.534.122-.413.211-.732.271-.949.03-.109.052-.192.067-.249.007-.028.013-.05.017-.065.002-.008.003-.014.004-.018.001-.002.001-.004.001-.005.001 0 .001-.001.001-.001v-.001l-.969-.246zm-6.028 13.626c-1.196 2.72-2.632 5.725-4.333 8.906l1.763.943c1.728-3.23 3.186-6.281 4.401-9.043l-1.831-.806zm-9.348 17.462c-1.708 2.665-3.592 5.381-5.666 8.096l1.589 1.214c2.11-2.762 4.026-5.523 5.761-8.232l-1.684-1.078zm-12.011 15.685c-2.174 2.374-4.507 4.709-7.01 6.969l1.34 1.485c2.553-2.305 4.931-4.685 7.145-7.104l-1.475-1.35zm-14.662 13.214c-2.597 1.908-5.344 3.724-8.247 5.42l1.009 1.727c2.966-1.733 5.77-3.587 8.422-5.535l-1.184-1.612zm-17.016 9.935c-2.928 1.315-5.992 2.509-9.199 3.56l.623 1.901c3.274-1.073 6.404-2.293 9.395-3.636l-.819-1.825zm-18.734 6.153c-1.591.347-3.213.661-4.867.939l.331 1.972c1.686-.283 3.34-.603 4.963-.957l-.427-1.954zm-4.867.939c-1.638.275-3.267.539-4.885.792l.309 1.976c1.626-.254 3.262-.519 4.907-.796l-.331-1.972zm-14.667 2.209c-3.309.44-6.575.834-9.8 1.183l.216 1.988c3.241-.35 6.523-.746 9.848-1.188l-.264-1.983zm-19.633 2.121c-3.33.274-6.616.5-9.857.679l.11 1.997c3.26-.18 6.563-.407 9.911-.683l-.164-1.993zm-19.723 1.084c-3.337.089-6.627.128-9.871.118l-.006 2c3.264.01 6.573-.029 9.93-.119l-.053-1.999zm-19.74-.063c-3.334-.114-6.62-.279-9.857-.493l-.133 1.995c3.26.216 6.566.383 9.922.497l.068-1.999zm-19.693-1.309c-3.317-.331-6.584-.714-9.802-1.147l-.266 1.982c3.24.436 6.529.822 9.869 1.155l.199-1.99zm-19.556-2.632c-3.281-.558-6.512-1.168-9.694-1.825l-.405 1.958c3.205.663 6.459 1.277 9.763 1.839l.336-1.972zm-19.32-3.993c-3.23-.787-6.411-1.624-9.546-2.506l-.542 1.925c3.157.888 6.361 1.731 9.615 2.524l.473-1.943zm-18.996-5.341c-1.574-.502-3.136-1.014-4.687-1.537l-.639 1.895c1.561.526 3.134 1.042 4.718 1.547l.608-1.905zm-4.687-1.537c-1.465-.495-2.896-1.012-4.291-1.549l-.719 1.866c1.422.548 2.879 1.074 4.371 1.578l.639-1.895zm-12.643-5.19c-2.827-1.383-5.483-2.847-7.978-4.364l-1.039 1.709c2.546 1.548 5.255 3.041 8.137 4.451l.88-1.796zm-15.522-9.449c-2.554-1.902-4.891-3.841-7.025-5.774l-1.343 1.483c2.179 1.973 4.566 3.953 7.174 5.895l1.194-1.604zm-13.468-12.207c-2.246-2.474-4.157-4.851-5.763-7.032l-1.61 1.187c1.643 2.231 3.597 4.662 5.892 7.189l1.481-1.344z"
        fill="#3521B5"
    />
    <g filter="url(#filter3_dd)">
        <rect x="321" y="334" width="317" height="358" rx="3" fill="#fff" />
        <g filter="url(#filter4_dd)">
            <path
                d="M548.17 469.887v-20.596c0-.974-.389-1.909-1.081-2.599-.692-.689-1.63-1.076-2.609-1.076H422.272v-3.645c0-.065.015-.126.015-.187v-9.961c0-2.111-1.445-3.823-3.229-3.823h-30.829c-1.784 0-3.229 1.712-3.229 3.823v13.783l19.849 143.183h8.764l139.323-97.503-4.766-21.399z"
                fill="#3521B5"
            />
            <path
                d="M561.808 455.874H416.761c-6.733 0-12.192 5.437-12.192 12.145v117.836c0 6.707 5.459 12.145 12.192 12.145h145.047c6.733 0 12.192-5.438 12.192-12.145V468.019c0-6.708-5.459-12.145-12.192-12.145z"
                fill="#5138EE"
            />
            <path
                d="M450.85 532.951c0 2.274-.739 4.02-2.215 5.238-1.465 1.207-3.364 1.811-5.696 1.811h-8.349v-25.594h6.732c2.59 0 4.629.528 6.117 1.582 1.5 1.055 2.25 2.713 2.25 4.975 0 1.488-.386 2.76-1.16 3.814-.773 1.043-1.886 1.7-3.34 1.969 1.067.141 2.028.51 2.883 1.108.856.585 1.53 1.324 2.022 2.214.504.879.756 1.84.756 2.883zm-9.528-17.596h-5.783v11.057h6.135c4.699 0 7.049-1.84 7.049-5.519 0-3.692-2.467-5.538-7.401-5.538zm8.578 17.631c0-.984-.252-1.904-.755-2.759-.493-.856-1.243-1.547-2.25-2.075-1.008-.527-2.268-.791-3.78-.791h-7.576v11.69h7.4c2.157 0 3.856-.533 5.098-1.6 1.242-1.066 1.863-2.555 1.863-4.465zm7.366 7.014h-.95v-25.594h.95v14.783l4.183-4.078 10.653-10.705h1.371l-11.391 11.461L474.352 540h-1.231l-11.76-13.465-4.095 3.779V540zm23.255-25.594l10.53 24.205 10.564-24.205h1.389V540h-.949v-24.188L491.438 540h-.756l-10.565-24.064V540h-.949v-25.594h1.353zm37.583 0c1.628 0 3.076.287 4.341.862 1.266.562 2.256 1.394 2.971 2.496.727 1.09 1.09 2.431 1.09 4.025 0 1.219-.258 2.32-.774 3.305-.515.984-1.207 1.799-2.074 2.443-.867.645-1.84 1.067-2.918 1.266l6.838 10.951V540h-1.002l-6.803-10.951h-8.877V540h-.949v-25.594h8.157zm0 .949h-7.208V528.1h8.069c1.465 0 2.683-.305 3.656-.914.973-.61 1.705-1.395 2.197-2.356.493-.973.739-1.986.739-3.041 0-2.016-.674-3.592-2.022-4.728-1.347-1.137-3.158-1.706-5.431-1.706zM534.539 540h-.949v-25.594h.949v14.783l4.184-4.078 10.652-10.705h1.371l-11.391 11.461L551.625 540h-1.23l-11.76-13.465-4.096 3.779V540z"
                fill="#fff"
            />
        </g>
    </g>
    <defs>
        <filter
            id="filter0_d"
            x="707"
            y="556"
            width="149"
            height="149"
            filterUnits="userSpaceOnUse"
            color-interpolation-filters="sRGB"
        >
            <feFlood flood-opacity="0" result="BackgroundImageFix" />
            <feColorMatrix in="SourceAlpha" values="0 0 0 0 0 0 0 0 0 0 0 0 0 0 0 0 0 0 127 0" />
            <feOffset dy="4" />
            <feGaussianBlur stdDeviation="8.5" />
            <feColorMatrix values="0 0 0 0 0 0 0 0 0 0 0 0 0 0 0 0 0 0 0.25 0" />
            <feBlend in2="BackgroundImageFix" result="effect1_dropShadow" />
            <feBlend in="SourceGraphic" in2="effect1_dropShadow" result="shape" />
        </filter>
        <filter
            id="filter1_d"
            x="91"
            y="274"
            width="181"
            height="181"
            filterUnits="userSpaceOnUse"
            color-interpolation-filters="sRGB"
        >
            <feFlood flood-opacity="0" result="BackgroundImageFix" />
            <feColorMatrix in="SourceAlpha" values="0 0 0 0 0 0 0 0 0 0 0 0 0 0 0 0 0 0 127 0" />
            <feOffset dy="4" />
            <feGaussianBlur stdDeviation="9" />
            <feColorMatrix values="0 0 0 0 0 0 0 0 0 0 0 0 0 0 0 0 0 0 0.25 0" />
            <feBlend in2="BackgroundImageFix" result="effect1_dropShadow" />
            <feBlend in="SourceGraphic" in2="effect1_dropShadow" result="shape" />
        </filter>
        <filter
            id="filter2_d"
            x="629"
            y="179"
            width="181"
            height="181"
            filterUnits="userSpaceOnUse"
            color-interpolation-filters="sRGB"
        >
            <feFlood flood-opacity="0" result="BackgroundImageFix" />
            <feColorMatrix in="SourceAlpha" values="0 0 0 0 0 0 0 0 0 0 0 0 0 0 0 0 0 0 127 0" />
            <feOffset dy="4" />
            <feGaussianBlur stdDeviation="9" />
            <feColorMatrix values="0 0 0 0 0 0 0 0 0 0 0 0 0 0 0 0 0 0 0.25 0" />
            <feBlend in2="BackgroundImageFix" result="effect1_dropShadow" />
            <feBlend in="SourceGraphic" in2="effect1_dropShadow" result="shape" />
        </filter>
        <filter
            id="filter3_dd"
            x="282"
            y="307"
            width="395"
            height="436"
            filterUnits="userSpaceOnUse"
            color-interpolation-filters="sRGB"
        >
            <feFlood flood-opacity="0" result="BackgroundImageFix" />
            <feColorMatrix in="SourceAlpha" values="0 0 0 0 0 0 0 0 0 0 0 0 0 0 0 0 0 0 127 0" />
            <feMorphology radius="21" operator="dilate" in="SourceAlpha" result="effect1_dropShadow" />
            <feOffset dy="12" />
            <feGaussianBlur stdDeviation="9" />
            <feColorMatrix values="0 0 0 0 0.2252 0 0 0 0 0.172153 0 0 0 0 0.558333 0 0 0 0.15 0" />
            <feBlend in2="BackgroundImageFix" result="effect1_dropShadow" />
            <feColorMatrix in="SourceAlpha" values="0 0 0 0 0 0 0 0 0 0 0 0 0 0 0 0 0 0 127 0" />
            <feMorphology radius="10" operator="dilate" in="SourceAlpha" result="effect2_dropShadow" />
            <feOffset dy="12" />
            <feGaussianBlur stdDeviation="9" />
            <feColorMatrix values="0 0 0 0 0.271697 0 0 0 0 0.213889 0 0 0 0 0.641667 0 0 0 0.18 0" />
            <feBlend in2="effect1_dropShadow" result="effect2_dropShadow" />
            <feBlend in="SourceGraphic" in2="effect2_dropShadow" result="shape" />
        </filter>
        <filter
            id="filter4_dd"
            x="367"
            y="416"
            width="225"
            height="210"
            filterUnits="userSpaceOnUse"
            color-interpolation-filters="sRGB"
        >
            <feFlood flood-opacity="0" result="BackgroundImageFix" />
            <feColorMatrix in="SourceAlpha" values="0 0 0 0 0 0 0 0 0 0 0 0 0 0 0 0 0 0 127 0" />
            <feOffset dy="10" />
            <feGaussianBlur stdDeviation="9" />
            <feColorMatrix values="0 0 0 0 1 0 0 0 0 0.92988 0 0 0 0 0.725 0 0 0 0.15 0" />
            <feBlend in2="BackgroundImageFix" result="effect1_dropShadow" />
            <feColorMatrix in="SourceAlpha" values="0 0 0 0 0 0 0 0 0 0 0 0 0 0 0 0 0 0 127 0" />
            <feOffset dy="4" />
            <feGaussianBlur stdDeviation="8" />
            <feColorMatrix values="0 0 0 0 0 0 0 0 0 0 0 0 0 0 0 0 0 0 0.25 0" />
            <feBlend in2="effect1_dropShadow" result="effect2_dropShadow" />
            <feBlend in="SourceGraphic" in2="effect2_dropShadow" result="shape" />
        </filter>
        <clipPath id="clip0">
            <path fill="#fff" transform="translate(762 590)" d="M0 0h39v74H0z" />
        </clipPath>
        <clipPath id="clip1">
            <path fill="#fff" transform="translate(669 236)" d="M0 0h101v61H0z" />
        </clipPath>
    </defs>
</svg>
